<svg width="353" height="377" viewBox="0 0 353 377" fill="none" xmlns="http://www.w3.org/2000/svg">
<g filter="url(#filter0_d_4_2100)">
<rect x="40.1248" y="24.5439" width="272.875" height="296" rx="16" fill="white"/>
<path d="M64.4948 54.0539C64.4948 53.3739 64.6514 52.7639 64.9648 52.2239C65.2848 51.6839 65.7148 51.2639 66.2548 50.9639C66.8014 50.6573 67.3981 50.5039 68.0448 50.5039C68.7848 50.5039 69.4414 50.6873 70.0148 51.0539C70.5948 51.4139 71.0148 51.9273 71.2748 52.5939H69.9048C69.7248 52.2273 69.4748 51.9539 69.1548 51.7739C68.8348 51.5939 68.4648 51.5039 68.0448 51.5039C67.5848 51.5039 67.1748 51.6073 66.8148 51.8139C66.4548 52.0206 66.1714 52.3173 65.9648 52.7039C65.7648 53.0906 65.6648 53.5406 65.6648 54.0539C65.6648 54.5673 65.7648 55.0173 65.9648 55.4039C66.1714 55.7906 66.4548 56.0906 66.8148 56.3039C67.1748 56.5106 67.5848 56.6139 68.0448 56.6139C68.4648 56.6139 68.8348 56.5239 69.1548 56.3439C69.4748 56.1639 69.7248 55.8906 69.9048 55.5239H71.2748C71.0148 56.1906 70.5948 56.7039 70.0148 57.0639C69.4414 57.4239 68.7848 57.6039 68.0448 57.6039C67.3914 57.6039 66.7948 57.4539 66.2548 57.1539C65.7148 56.8473 65.2848 56.4239 64.9648 55.8839C64.6514 55.3439 64.4948 54.7339 64.4948 54.0539ZM74.6991 57.6339C74.1791 57.6339 73.7091 57.5173 73.2891 57.2839C72.8691 57.0439 72.5391 56.7106 72.2991 56.2839C72.0591 55.8506 71.9391 55.3506 71.9391 54.7839C71.9391 54.2239 72.0625 53.7273 72.3091 53.2939C72.5558 52.8606 72.8925 52.5273 73.3191 52.2939C73.7458 52.0606 74.2225 51.9439 74.7491 51.9439C75.2758 51.9439 75.7525 52.0606 76.1791 52.2939C76.6058 52.5273 76.9425 52.8606 77.1891 53.2939C77.4358 53.7273 77.5591 54.2239 77.5591 54.7839C77.5591 55.3439 77.4325 55.8406 77.1791 56.2739C76.9258 56.7073 76.5791 57.0439 76.1391 57.2839C75.7058 57.5173 75.2258 57.6339 74.6991 57.6339ZM74.6991 56.6439C74.9925 56.6439 75.2658 56.5739 75.5191 56.4339C75.7791 56.2939 75.9891 56.0839 76.1491 55.8039C76.3091 55.5239 76.3891 55.1839 76.3891 54.7839C76.3891 54.3839 76.3125 54.0473 76.1591 53.7739C76.0058 53.4939 75.8025 53.2839 75.5491 53.1439C75.2958 53.0039 75.0225 52.9339 74.7291 52.9339C74.4358 52.9339 74.1625 53.0039 73.9091 53.1439C73.6625 53.2839 73.4658 53.4939 73.3191 53.7739C73.1725 54.0473 73.0991 54.3839 73.0991 54.7839C73.0991 55.3773 73.2491 55.8373 73.5491 56.1639C73.8558 56.4839 74.2391 56.6439 74.6991 56.6439ZM81.1661 51.9439C81.5994 51.9439 81.9861 52.0339 82.3261 52.2139C82.6728 52.3939 82.9428 52.6606 83.1361 53.0139C83.3294 53.3673 83.4261 53.7939 83.4261 54.2939V57.5439H82.2961V54.4639C82.2961 53.9706 82.1728 53.5939 81.9261 53.3339C81.6794 53.0673 81.3428 52.9339 80.9161 52.9339C80.4894 52.9339 80.1494 53.0673 79.8961 53.3339C79.6494 53.5939 79.5261 53.9706 79.5261 54.4639V57.5439H78.3861V52.0339H79.5261V52.6639C79.7128 52.4373 79.9494 52.2606 80.2361 52.1339C80.5294 52.0073 80.8394 51.9439 81.1661 51.9439ZM84.2002 54.7839C84.2002 54.2173 84.3136 53.7206 84.5402 53.2939C84.7736 52.8606 85.0936 52.5273 85.5002 52.2939C85.9069 52.0606 86.3736 51.9439 86.9002 51.9439C87.5669 51.9439 88.1169 52.1039 88.5502 52.4239C88.9902 52.7373 89.2869 53.1873 89.4402 53.7739H88.2102C88.1102 53.5006 87.9502 53.2873 87.7302 53.1339C87.5102 52.9806 87.2336 52.9039 86.9002 52.9039C86.4336 52.9039 86.0602 53.0706 85.7802 53.4039C85.5069 53.7306 85.3702 54.1906 85.3702 54.7839C85.3702 55.3773 85.5069 55.8406 85.7802 56.1739C86.0602 56.5073 86.4336 56.6739 86.9002 56.6739C87.5602 56.6739 87.9969 56.3839 88.2102 55.8039H89.4402C89.2802 56.3639 88.9802 56.8106 88.5402 57.1439C88.1002 57.4706 87.5536 57.6339 86.9002 57.6339C86.3736 57.6339 85.9069 57.5173 85.5002 57.2839C85.0936 57.0439 84.7736 56.7106 84.5402 56.2839C84.3136 55.8506 84.2002 55.3506 84.2002 54.7839ZM95.3263 54.6539C95.3263 54.8606 95.313 55.0473 95.2863 55.2139H91.0763C91.1097 55.6539 91.273 56.0073 91.5663 56.2739C91.8597 56.5406 92.2197 56.6739 92.6463 56.6739C93.2597 56.6739 93.693 56.4173 93.9463 55.9039H95.1763C95.0097 56.4106 94.7063 56.8273 94.2663 57.1539C93.833 57.4739 93.293 57.6339 92.6463 57.6339C92.1197 57.6339 91.6463 57.5173 91.2263 57.2839C90.813 57.0439 90.4863 56.7106 90.2463 56.2839C90.013 55.8506 89.8963 55.3506 89.8963 54.7839C89.8963 54.2173 90.0097 53.7206 90.2363 53.2939C90.4697 52.8606 90.793 52.5273 91.2063 52.2939C91.6263 52.0606 92.1063 51.9439 92.6463 51.9439C93.1663 51.9439 93.6297 52.0573 94.0363 52.2839C94.443 52.5106 94.7597 52.8306 94.9863 53.2439C95.213 53.6506 95.3263 54.1206 95.3263 54.6539ZM94.1363 54.2939C94.1297 53.8739 93.9797 53.5373 93.6863 53.2839C93.393 53.0306 93.0297 52.9039 92.5963 52.9039C92.203 52.9039 91.8663 53.0306 91.5863 53.2839C91.3063 53.5306 91.1397 53.8673 91.0863 54.2939H94.1363ZM97.2882 52.8439C97.4815 52.5906 97.7449 52.3773 98.0782 52.2039C98.4115 52.0306 98.7882 51.9439 99.2082 51.9439C99.6882 51.9439 100.125 52.0639 100.518 52.3039C100.918 52.5373 101.232 52.8673 101.458 53.2939C101.685 53.7206 101.798 54.2106 101.798 54.7639C101.798 55.3173 101.685 55.8139 101.458 56.2539C101.232 56.6873 100.918 57.0273 100.518 57.2739C100.125 57.5139 99.6882 57.6339 99.2082 57.6339C98.7882 57.6339 98.4149 57.5506 98.0882 57.3839C97.7615 57.2106 97.4949 56.9973 97.2882 56.7439V60.1639H96.1482V52.0339H97.2882V52.8439ZM100.638 54.7639C100.638 54.3839 100.558 54.0573 100.398 53.7839C100.245 53.5039 100.038 53.2939 99.7782 53.1539C99.5249 53.0073 99.2515 52.9339 98.9582 52.9339C98.6715 52.9339 98.3982 53.0073 98.1382 53.1539C97.8849 53.3006 97.6782 53.5139 97.5182 53.7939C97.3649 54.0739 97.2882 54.4039 97.2882 54.7839C97.2882 55.1639 97.3649 55.4973 97.5182 55.7839C97.6782 56.0639 97.8849 56.2773 98.1382 56.4239C98.3982 56.5706 98.6715 56.6439 98.9582 56.6439C99.2515 56.6439 99.5249 56.5706 99.7782 56.4239C100.038 56.2706 100.245 56.0506 100.398 55.7639C100.558 55.4773 100.638 55.1439 100.638 54.7639ZM103.956 52.9639V56.0139C103.956 56.2206 104.002 56.3706 104.096 56.4639C104.196 56.5506 104.362 56.5939 104.596 56.5939H105.296V57.5439H104.396C103.882 57.5439 103.489 57.4239 103.216 57.1839C102.942 56.9439 102.806 56.5539 102.806 56.0139V52.9639H102.156V52.0339H102.806V50.6639H103.956V52.0339H105.296V52.9639H103.956Z" fill="black"/>
<path d="M84.0548 94.6139C83.4081 94.6139 82.8181 94.4639 82.2848 94.1639C81.7514 93.8573 81.3281 93.4339 81.0148 92.8939C80.7081 92.3473 80.5548 91.7339 80.5548 91.0539C80.5548 90.3739 80.7081 89.7639 81.0148 89.2239C81.3281 88.6773 81.7514 88.2539 82.2848 87.9539C82.8181 87.6473 83.4081 87.4939 84.0548 87.4939C84.7081 87.4939 85.3014 87.6473 85.8348 87.9539C86.3681 88.2539 86.7881 88.6739 87.0948 89.2139C87.4014 89.7539 87.5548 90.3673 87.5548 91.0539C87.5548 91.7406 87.4014 92.3539 87.0948 92.8939C86.7881 93.4339 86.3681 93.8573 85.8348 94.1639C85.3014 94.4639 84.7081 94.6139 84.0548 94.6139ZM84.0548 93.8239C84.5414 93.8239 84.9781 93.7106 85.3648 93.4839C85.7581 93.2573 86.0648 92.9339 86.2848 92.5139C86.5114 92.0939 86.6248 91.6073 86.6248 91.0539C86.6248 90.4939 86.5114 90.0073 86.2848 89.5939C86.0648 89.1739 85.7614 88.8506 85.3748 88.6239C84.9881 88.3973 84.5481 88.2839 84.0548 88.2839C83.5614 88.2839 83.1214 88.3973 82.7348 88.6239C82.3481 88.8506 82.0414 89.1739 81.8148 89.5939C81.5948 90.0073 81.4848 90.4939 81.4848 91.0539C81.4848 91.6073 81.5948 92.0939 81.8148 92.5139C82.0414 92.9339 82.3481 93.2573 82.7348 93.4839C83.1281 93.7106 83.5681 93.8239 84.0548 93.8239ZM93.3161 89.0639V94.5439H92.4061V93.7339C92.2328 94.0139 91.9894 94.2339 91.6761 94.3939C91.3694 94.5473 91.0294 94.6239 90.6561 94.6239C90.2294 94.6239 89.8461 94.5373 89.5061 94.3639C89.1661 94.1839 88.8961 93.9173 88.6961 93.5639C88.5028 93.2106 88.4061 92.7806 88.4061 92.2739V89.0639H89.3061V92.1539C89.3061 92.6939 89.4428 93.1106 89.7161 93.4039C89.9894 93.6906 90.3628 93.8339 90.8361 93.8339C91.3228 93.8339 91.7061 93.6839 91.9861 93.3839C92.2661 93.0839 92.4061 92.6473 92.4061 92.0739V89.0639H93.3161ZM95.4626 89.9539C95.6226 89.6406 95.8492 89.3973 96.1426 89.2239C96.4426 89.0506 96.8059 88.9639 97.2326 88.9639V89.9039H96.9926C95.9726 89.9039 95.4626 90.4573 95.4626 91.5639V94.5439H94.5526V89.0639H95.4626V89.9539ZM103.019 88.9639C103.686 88.9639 104.226 89.1673 104.639 89.5739C105.052 89.9739 105.259 90.5539 105.259 91.3139V94.5439H104.359V91.4439C104.359 90.8973 104.222 90.4806 103.949 90.1939C103.676 89.9006 103.302 89.7539 102.829 89.7539C102.349 89.7539 101.966 89.9039 101.679 90.2039C101.399 90.5039 101.259 90.9406 101.259 91.5139V94.5439H100.349V89.0639H101.259V89.8439C101.439 89.5639 101.682 89.3473 101.989 89.1939C102.302 89.0406 102.646 88.9639 103.019 88.9639ZM111.446 91.5939C111.446 91.7673 111.436 91.9506 111.416 92.1439H107.036C107.069 92.6839 107.252 93.1073 107.586 93.4139C107.926 93.7139 108.336 93.8639 108.816 93.8639C109.209 93.8639 109.536 93.7739 109.796 93.5939C110.062 93.4073 110.249 93.1606 110.356 92.8539H111.336C111.189 93.3806 110.896 93.8106 110.456 94.1439C110.016 94.4706 109.469 94.6339 108.816 94.6339C108.296 94.6339 107.829 94.5173 107.416 94.2839C107.009 94.0506 106.689 93.7206 106.456 93.2939C106.222 92.8606 106.106 92.3606 106.106 91.7939C106.106 91.2273 106.219 90.7306 106.446 90.3039C106.672 89.8773 106.989 89.5506 107.396 89.3239C107.809 89.0906 108.282 88.9739 108.816 88.9739C109.336 88.9739 109.796 89.0873 110.196 89.3139C110.596 89.5406 110.902 89.8539 111.116 90.2539C111.336 90.6473 111.446 91.0939 111.446 91.5939ZM110.506 91.4039C110.506 91.0573 110.429 90.7606 110.276 90.5139C110.122 90.2606 109.912 90.0706 109.646 89.9439C109.386 89.8106 109.096 89.7439 108.776 89.7439C108.316 89.7439 107.922 89.8906 107.596 90.1839C107.276 90.4773 107.092 90.8839 107.046 91.4039H110.506ZM119.647 89.0639L117.937 94.5439H116.997L115.677 90.1939L114.357 94.5439H113.417L111.697 89.0639H112.627L113.887 93.6639L115.247 89.0639H116.177L117.507 93.6739L118.747 89.0639H119.647ZM124.556 94.6339C124.136 94.6339 123.759 94.5639 123.426 94.4239C123.093 94.2773 122.829 94.0773 122.636 93.8239C122.443 93.5639 122.336 93.2673 122.316 92.9339H123.256C123.283 93.2073 123.409 93.4306 123.636 93.6039C123.869 93.7773 124.173 93.8639 124.546 93.8639C124.893 93.8639 125.166 93.7873 125.366 93.6339C125.566 93.4806 125.666 93.2873 125.666 93.0539C125.666 92.8139 125.559 92.6373 125.346 92.5239C125.133 92.4039 124.803 92.2873 124.356 92.1739C123.949 92.0673 123.616 91.9606 123.356 91.8539C123.103 91.7406 122.883 91.5773 122.696 91.3639C122.516 91.1439 122.426 90.8573 122.426 90.5039C122.426 90.2239 122.509 89.9673 122.676 89.7339C122.843 89.5006 123.079 89.3173 123.386 89.1839C123.693 89.0439 124.043 88.9739 124.436 88.9739C125.043 88.9739 125.533 89.1273 125.906 89.4339C126.279 89.7406 126.479 90.1606 126.506 90.6939H125.596C125.576 90.4073 125.459 90.1773 125.246 90.0039C125.039 89.8306 124.759 89.7439 124.406 89.7439C124.079 89.7439 123.819 89.8139 123.626 89.9539C123.433 90.0939 123.336 90.2773 123.336 90.5039C123.336 90.6839 123.393 90.8339 123.506 90.9539C123.626 91.0673 123.773 91.1606 123.946 91.2339C124.126 91.3006 124.373 91.3773 124.686 91.4639C125.079 91.5706 125.399 91.6773 125.646 91.7839C125.893 91.8839 126.103 92.0373 126.276 92.2439C126.456 92.4506 126.549 92.7206 126.556 93.0539C126.556 93.3539 126.473 93.6239 126.306 93.8639C126.139 94.1039 125.903 94.2939 125.596 94.4339C125.296 94.5673 124.949 94.6339 124.556 94.6339ZM128.65 89.8139V93.0439C128.65 93.3106 128.707 93.5006 128.82 93.6139C128.934 93.7206 129.13 93.7739 129.41 93.7739H130.08V94.5439H129.26C128.754 94.5439 128.374 94.4273 128.12 94.1939C127.867 93.9606 127.74 93.5773 127.74 93.0439V89.8139H127.03V89.0639H127.74V87.6839H128.65V89.0639H130.08V89.8139H128.65ZM131.793 89.9539C131.953 89.6406 132.18 89.3973 132.473 89.2239C132.773 89.0506 133.136 88.9639 133.563 88.9639V89.9039H133.323C132.303 89.9039 131.793 90.4573 131.793 91.5639V94.5439H130.883V89.0639H131.793V89.9539ZM139.314 91.5939C139.314 91.7673 139.304 91.9506 139.284 92.1439H134.904C134.937 92.6839 135.12 93.1073 135.454 93.4139C135.794 93.7139 136.204 93.8639 136.684 93.8639C137.077 93.8639 137.404 93.7739 137.664 93.5939C137.93 93.4073 138.117 93.1606 138.224 92.8539H139.204C139.057 93.3806 138.764 93.8106 138.324 94.1439C137.884 94.4706 137.337 94.6339 136.684 94.6339C136.164 94.6339 135.697 94.5173 135.284 94.2839C134.877 94.0506 134.557 93.7206 134.324 93.2939C134.09 92.8606 133.974 92.3606 133.974 91.7939C133.974 91.2273 134.087 90.7306 134.314 90.3039C134.54 89.8773 134.857 89.5506 135.264 89.3239C135.677 89.0906 136.15 88.9739 136.684 88.9739C137.204 88.9739 137.664 89.0873 138.064 89.3139C138.464 89.5406 138.77 89.8539 138.984 90.2539C139.204 90.6473 139.314 91.0939 139.314 91.5939ZM138.374 91.4039C138.374 91.0573 138.297 90.7606 138.144 90.5139C137.99 90.2606 137.78 90.0706 137.514 89.9439C137.254 89.8106 136.964 89.7439 136.644 89.7439C136.184 89.7439 135.79 89.8906 135.464 90.1839C135.144 90.4773 134.96 90.8839 134.914 91.4039H138.374ZM145.215 91.5939C145.215 91.7673 145.205 91.9506 145.185 92.1439H140.805C140.838 92.6839 141.021 93.1073 141.355 93.4139C141.695 93.7139 142.105 93.8639 142.585 93.8639C142.978 93.8639 143.305 93.7739 143.565 93.5939C143.831 93.4073 144.018 93.1606 144.125 92.8539H145.105C144.958 93.3806 144.665 93.8106 144.225 94.1439C143.785 94.4706 143.238 94.6339 142.585 94.6339C142.065 94.6339 141.598 94.5173 141.185 94.2839C140.778 94.0506 140.458 93.7206 140.225 93.2939C139.991 92.8606 139.875 92.3606 139.875 91.7939C139.875 91.2273 139.988 90.7306 140.215 90.3039C140.441 89.8773 140.758 89.5506 141.165 89.3239C141.578 89.0906 142.051 88.9739 142.585 88.9739C143.105 88.9739 143.565 89.0873 143.965 89.3139C144.365 89.5406 144.671 89.8539 144.885 90.2539C145.105 90.6473 145.215 91.0939 145.215 91.5939ZM144.275 91.4039C144.275 91.0573 144.198 90.7606 144.045 90.5139C143.891 90.2606 143.681 90.0706 143.415 89.9439C143.155 89.8106 142.865 89.7439 142.545 89.7439C142.085 89.7439 141.691 89.8906 141.365 90.1839C141.045 90.4773 140.861 90.8839 140.815 91.4039H144.275ZM147.226 89.8139V93.0439C147.226 93.3106 147.283 93.5006 147.396 93.6139C147.509 93.7206 147.706 93.7739 147.986 93.7739H148.656V94.5439H147.836C147.329 94.5439 146.949 94.4273 146.696 94.1939C146.443 93.9606 146.316 93.5773 146.316 93.0439V89.8139H145.606V89.0639H146.316V87.6839H147.226V89.0639H148.656V89.8139H147.226ZM156.758 89.0639L155.048 94.5439H154.108L152.788 90.1939L151.468 94.5439H150.528L148.808 89.0639H149.738L150.998 93.6639L152.358 89.0639H153.288L154.618 93.6739L155.858 89.0639H156.758ZM162.362 91.5939C162.362 91.7673 162.352 91.9506 162.332 92.1439H157.952C157.985 92.6839 158.168 93.1073 158.502 93.4139C158.842 93.7139 159.252 93.8639 159.732 93.8639C160.125 93.8639 160.452 93.7739 160.712 93.5939C160.978 93.4073 161.165 93.1606 161.272 92.8539H162.252C162.105 93.3806 161.812 93.8106 161.372 94.1439C160.932 94.4706 160.385 94.6339 159.732 94.6339C159.212 94.6339 158.745 94.5173 158.332 94.2839C157.925 94.0506 157.605 93.7206 157.372 93.2939C157.138 92.8606 157.022 92.3606 157.022 91.7939C157.022 91.2273 157.135 90.7306 157.362 90.3039C157.588 89.8773 157.905 89.5506 158.312 89.3239C158.725 89.0906 159.198 88.9739 159.732 88.9739C160.252 88.9739 160.712 89.0873 161.112 89.3139C161.512 89.5406 161.818 89.8539 162.032 90.2539C162.252 90.6473 162.362 91.0939 162.362 91.5939ZM161.422 91.4039C161.422 91.0573 161.345 90.7606 161.192 90.5139C161.038 90.2606 160.828 90.0706 160.562 89.9439C160.302 89.8106 160.012 89.7439 159.692 89.7439C159.232 89.7439 158.838 89.8906 158.512 90.1839C158.192 90.4773 158.008 90.8839 157.962 91.4039H161.422ZM162.923 91.7839C162.923 91.2239 163.036 90.7339 163.263 90.3139C163.489 89.8873 163.799 89.5573 164.193 89.3239C164.593 89.0906 165.036 88.9739 165.523 88.9739C166.003 88.9739 166.419 89.0773 166.773 89.2839C167.126 89.4906 167.389 89.7506 167.563 90.0639V89.0639H168.483V94.5439H167.563V93.5239C167.383 93.8439 167.113 94.1106 166.753 94.3239C166.399 94.5306 165.986 94.6339 165.513 94.6339C165.026 94.6339 164.586 94.5139 164.193 94.2739C163.799 94.0339 163.489 93.6973 163.263 93.2639C163.036 92.8306 162.923 92.3373 162.923 91.7839ZM167.563 91.7939C167.563 91.3806 167.479 91.0206 167.313 90.7139C167.146 90.4073 166.919 90.1739 166.633 90.0139C166.353 89.8473 166.043 89.7639 165.703 89.7639C165.363 89.7639 165.053 89.8439 164.773 90.0039C164.493 90.1639 164.269 90.3973 164.103 90.7039C163.936 91.0106 163.853 91.3706 163.853 91.7839C163.853 92.2039 163.936 92.5706 164.103 92.8839C164.269 93.1906 164.493 93.4273 164.773 93.5939C165.053 93.7539 165.363 93.8339 165.703 93.8339C166.043 93.8339 166.353 93.7539 166.633 93.5939C166.919 93.4273 167.146 93.1906 167.313 92.8839C167.479 92.5706 167.563 92.2073 167.563 91.7939ZM170.631 89.9539C170.791 89.6406 171.017 89.3973 171.311 89.2239C171.611 89.0506 171.974 88.9639 172.401 88.9639V89.9039H172.161C171.141 89.9039 170.631 90.4573 170.631 91.5639V94.5439H169.721V89.0639H170.631V89.9539ZM177.457 94.6339C177.037 94.6339 176.66 94.5639 176.327 94.4239C175.994 94.2773 175.73 94.0773 175.537 93.8239C175.344 93.5639 175.237 93.2673 175.217 92.9339H176.157C176.184 93.2073 176.31 93.4306 176.537 93.6039C176.77 93.7773 177.074 93.8639 177.447 93.8639C177.794 93.8639 178.067 93.7873 178.267 93.6339C178.467 93.4806 178.567 93.2873 178.567 93.0539C178.567 92.8139 178.46 92.6373 178.247 92.5239C178.034 92.4039 177.704 92.2873 177.257 92.1739C176.85 92.0673 176.517 91.9606 176.257 91.8539C176.004 91.7406 175.784 91.5773 175.597 91.3639C175.417 91.1439 175.327 90.8573 175.327 90.5039C175.327 90.2239 175.41 89.9673 175.577 89.7339C175.744 89.5006 175.98 89.3173 176.287 89.1839C176.594 89.0439 176.944 88.9739 177.337 88.9739C177.944 88.9739 178.434 89.1273 178.807 89.4339C179.18 89.7406 179.38 90.1606 179.407 90.6939H178.497C178.477 90.4073 178.36 90.1773 178.147 90.0039C177.94 89.8306 177.66 89.7439 177.307 89.7439C176.98 89.7439 176.72 89.8139 176.527 89.9539C176.334 90.0939 176.237 90.2773 176.237 90.5039C176.237 90.6839 176.294 90.8339 176.407 90.9539C176.527 91.0673 176.674 91.1606 176.847 91.2339C177.027 91.3006 177.274 91.3773 177.587 91.4639C177.98 91.5706 178.3 91.6773 178.547 91.7839C178.794 91.8839 179.004 92.0373 179.177 92.2439C179.357 92.4506 179.45 92.7206 179.457 93.0539C179.457 93.3539 179.374 93.6239 179.207 93.8639C179.04 94.1039 178.804 94.2939 178.497 94.4339C178.197 94.5673 177.85 94.6339 177.457 94.6339ZM183.162 88.9639C183.575 88.9639 183.948 89.0539 184.282 89.2339C184.615 89.4073 184.875 89.6706 185.062 90.0239C185.255 90.3773 185.352 90.8073 185.352 91.3139V94.5439H184.452V91.4439C184.452 90.8973 184.315 90.4806 184.042 90.1939C183.768 89.9006 183.395 89.7539 182.922 89.7539C182.442 89.7539 182.058 89.9039 181.772 90.2039C181.492 90.5039 181.352 90.9406 181.352 91.5139V94.5439H180.442V87.1439H181.352V89.8439C181.532 89.5639 181.778 89.3473 182.092 89.1939C182.412 89.0406 182.768 88.9639 183.162 88.9639ZM188.928 94.6339C188.415 94.6339 187.948 94.5173 187.528 94.2839C187.115 94.0506 186.788 93.7206 186.548 93.2939C186.315 92.8606 186.198 92.3606 186.198 91.7939C186.198 91.2339 186.318 90.7406 186.558 90.3139C186.805 89.8806 187.138 89.5506 187.558 89.3239C187.978 89.0906 188.448 88.9739 188.968 88.9739C189.488 88.9739 189.958 89.0906 190.378 89.3239C190.798 89.5506 191.128 89.8773 191.368 90.3039C191.615 90.7306 191.738 91.2273 191.738 91.7939C191.738 92.3606 191.611 92.8606 191.358 93.2939C191.111 93.7206 190.775 94.0506 190.348 94.2839C189.921 94.5173 189.448 94.6339 188.928 94.6339ZM188.928 93.8339C189.255 93.8339 189.561 93.7573 189.848 93.6039C190.135 93.4506 190.365 93.2206 190.538 92.9139C190.718 92.6073 190.808 92.2339 190.808 91.7939C190.808 91.3539 190.721 90.9806 190.548 90.6739C190.375 90.3673 190.148 90.1406 189.868 89.9939C189.588 89.8406 189.285 89.7639 188.958 89.7639C188.625 89.7639 188.318 89.8406 188.038 89.9939C187.765 90.1406 187.545 90.3673 187.378 90.6739C187.211 90.9806 187.128 91.3539 187.128 91.7939C187.128 92.2406 187.208 92.6173 187.368 92.9239C187.535 93.2306 187.755 93.4606 188.028 93.6139C188.301 93.7606 188.601 93.8339 188.928 93.8339ZM197.635 91.5939C197.635 91.7673 197.625 91.9506 197.605 92.1439H193.225C193.258 92.6839 193.441 93.1073 193.775 93.4139C194.115 93.7139 194.525 93.8639 195.005 93.8639C195.398 93.8639 195.725 93.7739 195.985 93.5939C196.251 93.4073 196.438 93.1606 196.545 92.8539H197.525C197.378 93.3806 197.085 93.8106 196.645 94.1439C196.205 94.4706 195.658 94.6339 195.005 94.6339C194.485 94.6339 194.018 94.5173 193.605 94.2839C193.198 94.0506 192.878 93.7206 192.645 93.2939C192.411 92.8606 192.295 92.3606 192.295 91.7939C192.295 91.2273 192.408 90.7306 192.635 90.3039C192.861 89.8773 193.178 89.5506 193.585 89.3239C193.998 89.0906 194.471 88.9739 195.005 88.9739C195.525 88.9739 195.985 89.0873 196.385 89.3139C196.785 89.5406 197.091 89.8539 197.305 90.2539C197.525 90.6473 197.635 91.0939 197.635 91.5939ZM196.695 91.4039C196.695 91.0573 196.618 90.7606 196.465 90.5139C196.311 90.2606 196.101 90.0706 195.835 89.9439C195.575 89.8106 195.285 89.7439 194.965 89.7439C194.505 89.7439 194.111 89.8906 193.785 90.1839C193.465 90.4773 193.281 90.8839 193.235 91.4039H196.695Z" fill="#1D2736"/>
<rect x="64.6248" y="70.0439" width="223.875" height="42" rx="7.5" stroke="#E0E0E0"/>
<path d="M69.7348 140.664C69.7348 141.017 69.6514 141.351 69.4848 141.664C69.3181 141.977 69.0514 142.234 68.6848 142.434C68.3181 142.627 67.8481 142.724 67.2748 142.724H66.0148V145.544H64.8748V138.594H67.2748C67.8081 138.594 68.2581 138.687 68.6248 138.874C68.9981 139.054 69.2748 139.301 69.4548 139.614C69.6414 139.927 69.7348 140.277 69.7348 140.664ZM67.2748 141.794C67.7081 141.794 68.0314 141.697 68.2448 141.504C68.4581 141.304 68.5648 141.024 68.5648 140.664C68.5648 139.904 68.1348 139.524 67.2748 139.524H66.0148V141.794H67.2748ZM75.512 140.034V145.544H74.372V144.894C74.192 145.121 73.9554 145.301 73.662 145.434C73.3754 145.561 73.0687 145.624 72.742 145.624C72.3087 145.624 71.9187 145.534 71.572 145.354C71.232 145.174 70.962 144.907 70.762 144.554C70.5687 144.201 70.472 143.774 70.472 143.274V140.034H71.602V143.104C71.602 143.597 71.7254 143.977 71.972 144.244C72.2187 144.504 72.5554 144.634 72.982 144.634C73.4087 144.634 73.7454 144.504 73.992 144.244C74.2454 143.977 74.372 143.597 74.372 143.104V140.034H75.512ZM77.8562 140.854C78.0495 140.587 78.3128 140.371 78.6462 140.204C78.9862 140.031 79.3628 139.944 79.7762 139.944C80.2628 139.944 80.7028 140.061 81.0962 140.294C81.4895 140.527 81.7995 140.861 82.0262 141.294C82.2528 141.721 82.3662 142.211 82.3662 142.764C82.3662 143.317 82.2528 143.814 82.0262 144.254C81.7995 144.687 81.4862 145.027 81.0862 145.274C80.6928 145.514 80.2562 145.634 79.7762 145.634C79.3495 145.634 78.9695 145.551 78.6362 145.384C78.3095 145.217 78.0495 145.004 77.8562 144.744V145.544H76.7162V138.144H77.8562V140.854ZM81.2062 142.764C81.2062 142.384 81.1262 142.057 80.9662 141.784C80.8128 141.504 80.6062 141.294 80.3462 141.154C80.0928 141.007 79.8195 140.934 79.5262 140.934C79.2395 140.934 78.9662 141.007 78.7062 141.154C78.4528 141.301 78.2462 141.514 78.0862 141.794C77.9328 142.074 77.8562 142.404 77.8562 142.784C77.8562 143.164 77.9328 143.497 78.0862 143.784C78.2462 144.064 78.4528 144.277 78.7062 144.424C78.9662 144.571 79.2395 144.644 79.5262 144.644C79.8195 144.644 80.0928 144.571 80.3462 144.424C80.6062 144.271 80.8128 144.051 80.9662 143.764C81.1262 143.477 81.2062 143.144 81.2062 142.764ZM84.3335 138.144V145.544H83.1935V138.144H84.3335ZM86.1102 139.304C85.9036 139.304 85.7302 139.234 85.5902 139.094C85.4502 138.954 85.3802 138.781 85.3802 138.574C85.3802 138.367 85.4502 138.194 85.5902 138.054C85.7302 137.914 85.9036 137.844 86.1102 137.844C86.3102 137.844 86.4802 137.914 86.6202 138.054C86.7602 138.194 86.8302 138.367 86.8302 138.574C86.8302 138.781 86.7602 138.954 86.6202 139.094C86.4802 139.234 86.3102 139.304 86.1102 139.304ZM86.6702 140.034V145.544H85.5302V140.034H86.6702ZM87.4869 142.784C87.4869 142.217 87.6003 141.721 87.8269 141.294C88.0603 140.861 88.3803 140.527 88.7869 140.294C89.1936 140.061 89.6603 139.944 90.1869 139.944C90.8536 139.944 91.4036 140.104 91.8369 140.424C92.2769 140.737 92.5736 141.187 92.7269 141.774H91.4969C91.3969 141.501 91.2369 141.287 91.0169 141.134C90.7969 140.981 90.5203 140.904 90.1869 140.904C89.7203 140.904 89.3469 141.071 89.0669 141.404C88.7936 141.731 88.6569 142.191 88.6569 142.784C88.6569 143.377 88.7936 143.841 89.0669 144.174C89.3469 144.507 89.7203 144.674 90.1869 144.674C90.8469 144.674 91.2836 144.384 91.4969 143.804H92.7269C92.5669 144.364 92.2669 144.811 91.8269 145.144C91.3869 145.471 90.8403 145.634 90.1869 145.634C89.6603 145.634 89.1936 145.517 88.7869 145.284C88.3803 145.044 88.0603 144.711 87.8269 144.284C87.6003 143.851 87.4869 143.351 87.4869 142.784ZM93.183 142.764C93.183 142.211 93.2964 141.721 93.523 141.294C93.7564 140.867 94.0697 140.537 94.463 140.304C94.863 140.064 95.303 139.944 95.783 139.944C96.2164 139.944 96.593 140.031 96.913 140.204C97.2397 140.371 97.4997 140.581 97.693 140.834V140.034H98.843V145.544H97.693V144.724C97.4997 144.984 97.2364 145.201 96.903 145.374C96.5697 145.547 96.1897 145.634 95.763 145.634C95.2897 145.634 94.8564 145.514 94.463 145.274C94.0697 145.027 93.7564 144.687 93.523 144.254C93.2964 143.814 93.183 143.317 93.183 142.764ZM97.693 142.784C97.693 142.404 97.613 142.074 97.453 141.794C97.2997 141.514 97.0964 141.301 96.843 141.154C96.5897 141.007 96.3164 140.934 96.023 140.934C95.7297 140.934 95.4564 141.007 95.203 141.154C94.9497 141.294 94.743 141.504 94.583 141.784C94.4297 142.057 94.353 142.384 94.353 142.764C94.353 143.144 94.4297 143.477 94.583 143.764C94.743 144.051 94.9497 144.271 95.203 144.424C95.463 144.571 95.7364 144.644 96.023 144.644C96.3164 144.644 96.5897 144.571 96.843 144.424C97.0964 144.277 97.2997 144.064 97.453 143.784C97.613 143.497 97.693 143.164 97.693 142.784ZM101.37 140.964V144.014C101.37 144.221 101.417 144.371 101.51 144.464C101.61 144.551 101.777 144.594 102.01 144.594H102.71V145.544H101.81C101.297 145.544 100.904 145.424 100.63 145.184C100.357 144.944 100.22 144.554 100.22 144.014V140.964H99.5704V140.034H100.22V138.664H101.37V140.034H102.71V140.964H101.37ZM104.041 139.304C103.834 139.304 103.661 139.234 103.521 139.094C103.381 138.954 103.311 138.781 103.311 138.574C103.311 138.367 103.381 138.194 103.521 138.054C103.661 137.914 103.834 137.844 104.041 137.844C104.241 137.844 104.411 137.914 104.551 138.054C104.691 138.194 104.761 138.367 104.761 138.574C104.761 138.781 104.691 138.954 104.551 139.094C104.411 139.234 104.241 139.304 104.041 139.304ZM104.601 140.034V145.544H103.461V140.034H104.601ZM108.188 145.634C107.668 145.634 107.198 145.517 106.778 145.284C106.358 145.044 106.028 144.711 105.788 144.284C105.548 143.851 105.428 143.351 105.428 142.784C105.428 142.224 105.551 141.727 105.798 141.294C106.044 140.861 106.381 140.527 106.808 140.294C107.234 140.061 107.711 139.944 108.238 139.944C108.764 139.944 109.241 140.061 109.668 140.294C110.094 140.527 110.431 140.861 110.678 141.294C110.924 141.727 111.048 142.224 111.048 142.784C111.048 143.344 110.921 143.841 110.668 144.274C110.414 144.707 110.068 145.044 109.628 145.284C109.194 145.517 108.714 145.634 108.188 145.634ZM108.188 144.644C108.481 144.644 108.754 144.574 109.008 144.434C109.268 144.294 109.478 144.084 109.638 143.804C109.798 143.524 109.878 143.184 109.878 142.784C109.878 142.384 109.801 142.047 109.648 141.774C109.494 141.494 109.291 141.284 109.038 141.144C108.784 141.004 108.511 140.934 108.218 140.934C107.924 140.934 107.651 141.004 107.398 141.144C107.151 141.284 106.954 141.494 106.808 141.774C106.661 142.047 106.588 142.384 106.588 142.784C106.588 143.377 106.738 143.837 107.038 144.164C107.344 144.484 107.728 144.644 108.188 144.644ZM114.655 139.944C115.088 139.944 115.475 140.034 115.815 140.214C116.161 140.394 116.431 140.661 116.625 141.014C116.818 141.367 116.915 141.794 116.915 142.294V145.544H115.785V142.464C115.785 141.971 115.661 141.594 115.415 141.334C115.168 141.067 114.831 140.934 114.405 140.934C113.978 140.934 113.638 141.067 113.385 141.334C113.138 141.594 113.015 141.971 113.015 142.464V145.544H111.875V140.034H113.015V140.664C113.201 140.437 113.438 140.261 113.725 140.134C114.018 140.007 114.328 139.944 114.655 139.944ZM124.857 138.594V139.524H123.007V145.544H121.867V139.524H120.007V138.594H124.857ZM130.671 140.034L127.291 148.134H126.111L127.231 145.454L125.061 140.034H126.331L127.881 144.234L129.491 140.034H130.671ZM132.371 140.844C132.565 140.591 132.828 140.377 133.161 140.204C133.495 140.031 133.871 139.944 134.291 139.944C134.771 139.944 135.208 140.064 135.601 140.304C136.001 140.537 136.315 140.867 136.541 141.294C136.768 141.721 136.881 142.211 136.881 142.764C136.881 143.317 136.768 143.814 136.541 144.254C136.315 144.687 136.001 145.027 135.601 145.274C135.208 145.514 134.771 145.634 134.291 145.634C133.871 145.634 133.498 145.551 133.171 145.384C132.845 145.211 132.578 144.997 132.371 144.744V148.164H131.231V140.034H132.371V140.844ZM135.721 142.764C135.721 142.384 135.641 142.057 135.481 141.784C135.328 141.504 135.121 141.294 134.861 141.154C134.608 141.007 134.335 140.934 134.041 140.934C133.755 140.934 133.481 141.007 133.221 141.154C132.968 141.301 132.761 141.514 132.601 141.794C132.448 142.074 132.371 142.404 132.371 142.784C132.371 143.164 132.448 143.497 132.601 143.784C132.761 144.064 132.968 144.277 133.221 144.424C133.481 144.571 133.755 144.644 134.041 144.644C134.335 144.644 134.608 144.571 134.861 144.424C135.121 144.271 135.328 144.051 135.481 143.764C135.641 143.477 135.721 143.144 135.721 142.764ZM142.759 142.654C142.759 142.861 142.745 143.047 142.719 143.214H138.509C138.542 143.654 138.705 144.007 138.999 144.274C139.292 144.541 139.652 144.674 140.079 144.674C140.692 144.674 141.125 144.417 141.379 143.904H142.609C142.442 144.411 142.139 144.827 141.699 145.154C141.265 145.474 140.725 145.634 140.079 145.634C139.552 145.634 139.079 145.517 138.659 145.284C138.245 145.044 137.919 144.711 137.679 144.284C137.445 143.851 137.329 143.351 137.329 142.784C137.329 142.217 137.442 141.721 137.669 141.294C137.902 140.861 138.225 140.527 138.639 140.294C139.059 140.061 139.539 139.944 140.079 139.944C140.599 139.944 141.062 140.057 141.469 140.284C141.875 140.511 142.192 140.831 142.419 141.244C142.645 141.651 142.759 142.121 142.759 142.654ZM141.569 142.294C141.562 141.874 141.412 141.537 141.119 141.284C140.825 141.031 140.462 140.904 140.029 140.904C139.635 140.904 139.299 141.031 139.019 141.284C138.739 141.531 138.572 141.867 138.519 142.294H141.569Z" fill="black"/>
<path d="M85.5548 177.614C85.5548 178.194 85.3548 178.677 84.9548 179.064C84.5614 179.444 83.9581 179.634 83.1448 179.634H81.8048V182.544H80.8948V175.574H83.1448C83.9314 175.574 84.5281 175.764 84.9348 176.144C85.3481 176.524 85.5548 177.014 85.5548 177.614ZM83.1448 178.884C83.6514 178.884 84.0248 178.774 84.2648 178.554C84.5048 178.334 84.6248 178.021 84.6248 177.614C84.6248 176.754 84.1314 176.324 83.1448 176.324H81.8048V178.884H83.1448ZM88.7758 182.634C88.2624 182.634 87.7958 182.517 87.3758 182.284C86.9624 182.051 86.6358 181.721 86.3958 181.294C86.1624 180.861 86.0458 180.361 86.0458 179.794C86.0458 179.234 86.1658 178.741 86.4058 178.314C86.6524 177.881 86.9858 177.551 87.4058 177.324C87.8258 177.091 88.2958 176.974 88.8158 176.974C89.3358 176.974 89.8058 177.091 90.2258 177.324C90.6458 177.551 90.9758 177.877 91.2158 178.304C91.4624 178.731 91.5858 179.227 91.5858 179.794C91.5858 180.361 91.4591 180.861 91.2058 181.294C90.9591 181.721 90.6224 182.051 90.1958 182.284C89.7691 182.517 89.2958 182.634 88.7758 182.634ZM88.7758 181.834C89.1024 181.834 89.4091 181.757 89.6958 181.604C89.9824 181.451 90.2124 181.221 90.3858 180.914C90.5658 180.607 90.6558 180.234 90.6558 179.794C90.6558 179.354 90.5691 178.981 90.3958 178.674C90.2224 178.367 89.9958 178.141 89.7158 177.994C89.4358 177.841 89.1324 177.764 88.8058 177.764C88.4724 177.764 88.1658 177.841 87.8858 177.994C87.6124 178.141 87.3924 178.367 87.2258 178.674C87.0591 178.981 86.9758 179.354 86.9758 179.794C86.9758 180.241 87.0558 180.617 87.2158 180.924C87.3824 181.231 87.6024 181.461 87.8758 181.614C88.1491 181.761 88.4491 181.834 88.7758 181.834ZM94.4223 182.634C94.0023 182.634 93.6256 182.564 93.2923 182.424C92.9589 182.277 92.6956 182.077 92.5023 181.824C92.3089 181.564 92.2023 181.267 92.1823 180.934H93.1223C93.1489 181.207 93.2756 181.431 93.5023 181.604C93.7356 181.777 94.0389 181.864 94.4123 181.864C94.7589 181.864 95.0323 181.787 95.2323 181.634C95.4323 181.481 95.5323 181.287 95.5323 181.054C95.5323 180.814 95.4256 180.637 95.2123 180.524C94.9989 180.404 94.6689 180.287 94.2223 180.174C93.8156 180.067 93.4823 179.961 93.2223 179.854C92.9689 179.741 92.7489 179.577 92.5623 179.364C92.3823 179.144 92.2923 178.857 92.2923 178.504C92.2923 178.224 92.3756 177.967 92.5423 177.734C92.7089 177.501 92.9456 177.317 93.2523 177.184C93.5589 177.044 93.9089 176.974 94.3023 176.974C94.9089 176.974 95.3989 177.127 95.7723 177.434C96.1456 177.741 96.3456 178.161 96.3723 178.694H95.4623C95.4423 178.407 95.3256 178.177 95.1123 178.004C94.9056 177.831 94.6256 177.744 94.2723 177.744C93.9456 177.744 93.6856 177.814 93.4923 177.954C93.2989 178.094 93.2023 178.277 93.2023 178.504C93.2023 178.684 93.2589 178.834 93.3723 178.954C93.4923 179.067 93.6389 179.161 93.8123 179.234C93.9923 179.301 94.2389 179.377 94.5523 179.464C94.9456 179.571 95.2656 179.677 95.5123 179.784C95.7589 179.884 95.9689 180.037 96.1423 180.244C96.3223 180.451 96.4156 180.721 96.4223 181.054C96.4223 181.354 96.3389 181.624 96.1723 181.864C96.0056 182.104 95.7689 182.294 95.4623 182.434C95.1623 182.567 94.8156 182.634 94.4223 182.634ZM98.5169 177.814V181.044C98.5169 181.311 98.5735 181.501 98.6869 181.614C98.8002 181.721 98.9969 181.774 99.2769 181.774H99.9469V182.544H99.1269C98.6202 182.544 98.2402 182.427 97.9869 182.194C97.7335 181.961 97.6069 181.577 97.6069 181.044V177.814H96.8969V177.064H97.6069V175.684H98.5169V177.064H99.9469V177.814H98.5169Z" fill="#1D2736"/>
<path d="M267 182.356C266.851 182.356 266.708 182.297 266.602 182.192L262.852 178.442C262.746 178.337 262.687 178.193 262.687 178.044C262.687 177.895 262.746 177.751 262.852 177.646C262.957 177.54 263.101 177.48 263.25 177.48C263.399 177.48 263.543 177.54 263.648 177.646L267 180.997L270.352 177.646C270.457 177.54 270.601 177.48 270.75 177.48C270.899 177.48 271.043 177.54 271.148 177.646C271.254 177.751 271.313 177.895 271.313 178.044C271.313 178.193 271.254 178.337 271.148 178.442L267.398 182.192C267.292 182.297 267.149 182.356 267 182.356Z" fill="black"/>
<rect x="64.6248" y="158.044" width="223.875" height="43" rx="7.5" stroke="#E0E0E0"/>
<path d="M70.4248 227.594V234.544H69.2848V231.504H66.0148V234.544H64.8748V227.594H66.0148V230.574H69.2848V227.594H70.4248ZM71.2455 231.764C71.2455 231.211 71.3589 230.721 71.5855 230.294C71.8189 229.867 72.1322 229.537 72.5255 229.304C72.9255 229.064 73.3655 228.944 73.8455 228.944C74.2789 228.944 74.6555 229.031 74.9755 229.204C75.3022 229.371 75.5622 229.581 75.7555 229.834V229.034H76.9055V234.544H75.7555V233.724C75.5622 233.984 75.2989 234.201 74.9655 234.374C74.6322 234.547 74.2522 234.634 73.8255 234.634C73.3522 234.634 72.9189 234.514 72.5255 234.274C72.1322 234.027 71.8189 233.687 71.5855 233.254C71.3589 232.814 71.2455 232.317 71.2455 231.764ZM75.7555 231.784C75.7555 231.404 75.6755 231.074 75.5155 230.794C75.3622 230.514 75.1589 230.301 74.9055 230.154C74.6522 230.007 74.3789 229.934 74.0855 229.934C73.7922 229.934 73.5189 230.007 73.2655 230.154C73.0122 230.294 72.8055 230.504 72.6455 230.784C72.4922 231.057 72.4155 231.384 72.4155 231.764C72.4155 232.144 72.4922 232.477 72.6455 232.764C72.8055 233.051 73.0122 233.271 73.2655 233.424C73.5255 233.571 73.7989 233.644 74.0855 233.644C74.3789 233.644 74.6522 233.571 74.9055 233.424C75.1589 233.277 75.3622 233.064 75.5155 232.784C75.6755 232.497 75.7555 232.164 75.7555 231.784ZM80.1029 234.634C79.6695 234.634 79.2795 234.557 78.9329 234.404C78.5929 234.244 78.3229 234.031 78.1229 233.764C77.9229 233.491 77.8162 233.187 77.8029 232.854H78.9829C79.0029 233.087 79.1129 233.284 79.3129 233.444C79.5195 233.597 79.7762 233.674 80.0829 233.674C80.4029 233.674 80.6495 233.614 80.8229 233.494C81.0029 233.367 81.0929 233.207 81.0929 233.014C81.0929 232.807 80.9929 232.654 80.7929 232.554C80.5995 232.454 80.2895 232.344 79.8629 232.224C79.4495 232.111 79.1129 232.001 78.8529 231.894C78.5929 231.787 78.3662 231.624 78.1729 231.404C77.9862 231.184 77.8929 230.894 77.8929 230.534C77.8929 230.241 77.9795 229.974 78.1529 229.734C78.3262 229.487 78.5729 229.294 78.8929 229.154C79.2195 229.014 79.5929 228.944 80.0129 228.944C80.6395 228.944 81.1429 229.104 81.5229 229.424C81.9095 229.737 82.1162 230.167 82.1429 230.714H81.0029C80.9829 230.467 80.8829 230.271 80.7029 230.124C80.5229 229.977 80.2795 229.904 79.9729 229.904C79.6729 229.904 79.4429 229.961 79.2829 230.074C79.1229 230.187 79.0429 230.337 79.0429 230.524C79.0429 230.671 79.0962 230.794 79.2029 230.894C79.3095 230.994 79.4395 231.074 79.5929 231.134C79.7462 231.187 79.9729 231.257 80.2729 231.344C80.6729 231.451 80.9995 231.561 81.2529 231.674C81.5129 231.781 81.7362 231.941 81.9229 232.154C82.1095 232.367 82.2062 232.651 82.2129 233.004C82.2129 233.317 82.1262 233.597 81.9529 233.844C81.7795 234.091 81.5329 234.284 81.2129 234.424C80.8995 234.564 80.5295 234.634 80.1029 234.634ZM85.9947 228.944C86.4147 228.944 86.788 229.034 87.1147 229.214C87.448 229.394 87.708 229.661 87.8947 230.014C88.088 230.367 88.1847 230.794 88.1847 231.294V234.544H87.0547V231.464C87.0547 230.971 86.9313 230.594 86.6847 230.334C86.438 230.067 86.1013 229.934 85.6747 229.934C85.248 229.934 84.908 230.067 84.6547 230.334C84.408 230.594 84.2847 230.971 84.2847 231.464V234.544H83.1447V227.144H84.2847V229.674C84.478 229.441 84.7213 229.261 85.0147 229.134C85.3147 229.007 85.6413 228.944 85.9947 228.944ZM90.6688 229.964V233.014C90.6688 233.221 90.7155 233.371 90.8088 233.464C90.9088 233.551 91.0755 233.594 91.3088 233.594H92.0088V234.544H91.1088C90.5955 234.544 90.2022 234.424 89.9288 234.184C89.6555 233.944 89.5188 233.554 89.5188 233.014V229.964H88.8688V229.034H89.5188V227.664H90.6688V229.034H92.0088V229.964H90.6688ZM92.3795 231.764C92.3795 231.211 92.4929 230.721 92.7195 230.294C92.9529 229.867 93.2662 229.537 93.6595 229.304C94.0595 229.064 94.4995 228.944 94.9795 228.944C95.4129 228.944 95.7895 229.031 96.1095 229.204C96.4362 229.371 96.6962 229.581 96.8895 229.834V229.034H98.0395V234.544H96.8895V233.724C96.6962 233.984 96.4329 234.201 96.0995 234.374C95.7662 234.547 95.3862 234.634 94.9595 234.634C94.4862 234.634 94.0529 234.514 93.6595 234.274C93.2662 234.027 92.9529 233.687 92.7195 233.254C92.4929 232.814 92.3795 232.317 92.3795 231.764ZM96.8895 231.784C96.8895 231.404 96.8095 231.074 96.6495 230.794C96.4962 230.514 96.2929 230.301 96.0395 230.154C95.7862 230.007 95.5129 229.934 95.2195 229.934C94.9262 229.934 94.6529 230.007 94.3995 230.154C94.1462 230.294 93.9395 230.504 93.7795 230.784C93.6262 231.057 93.5495 231.384 93.5495 231.764C93.5495 232.144 93.6262 232.477 93.7795 232.764C93.9395 233.051 94.1462 233.271 94.3995 233.424C94.6595 233.571 94.9329 233.644 95.2195 233.644C95.5129 233.644 95.7862 233.571 96.0395 233.424C96.2929 233.277 96.4962 233.064 96.6495 232.784C96.8095 232.497 96.8895 232.164 96.8895 231.784ZM101.457 228.944C101.884 228.944 102.26 229.031 102.587 229.204C102.92 229.371 103.18 229.581 103.367 229.834V229.034H104.517V234.634C104.517 235.141 104.41 235.591 104.197 235.984C103.984 236.384 103.674 236.697 103.267 236.924C102.867 237.151 102.387 237.264 101.827 237.264C101.08 237.264 100.46 237.087 99.9669 236.734C99.4735 236.387 99.1935 235.914 99.1269 235.314H100.257C100.344 235.601 100.527 235.831 100.807 236.004C101.094 236.184 101.434 236.274 101.827 236.274C102.287 236.274 102.657 236.134 102.937 235.854C103.224 235.574 103.367 235.167 103.367 234.634V233.714C103.174 233.974 102.91 234.194 102.577 234.374C102.25 234.547 101.877 234.634 101.457 234.634C100.977 234.634 100.537 234.514 100.137 234.274C99.7435 234.027 99.4302 233.687 99.1969 233.254C98.9702 232.814 98.8569 232.317 98.8569 231.764C98.8569 231.211 98.9702 230.721 99.1969 230.294C99.4302 229.867 99.7435 229.537 100.137 229.304C100.537 229.064 100.977 228.944 101.457 228.944ZM103.367 231.784C103.367 231.404 103.287 231.074 103.127 230.794C102.974 230.514 102.77 230.301 102.517 230.154C102.264 230.007 101.99 229.934 101.697 229.934C101.404 229.934 101.13 230.007 100.877 230.154C100.624 230.294 100.417 230.504 100.257 230.784C100.104 231.057 100.027 231.384 100.027 231.764C100.027 232.144 100.104 232.477 100.257 232.764C100.417 233.051 100.624 233.271 100.877 233.424C101.137 233.571 101.41 233.644 101.697 233.644C101.99 233.644 102.264 233.571 102.517 233.424C102.77 233.277 102.974 233.064 103.127 232.784C103.287 232.497 103.367 232.164 103.367 231.784ZM107.714 234.634C107.281 234.634 106.891 234.557 106.544 234.404C106.204 234.244 105.934 234.031 105.734 233.764C105.534 233.491 105.428 233.187 105.414 232.854H106.594C106.614 233.087 106.724 233.284 106.924 233.444C107.131 233.597 107.388 233.674 107.694 233.674C108.014 233.674 108.261 233.614 108.434 233.494C108.614 233.367 108.704 233.207 108.704 233.014C108.704 232.807 108.604 232.654 108.404 232.554C108.211 232.454 107.901 232.344 107.474 232.224C107.061 232.111 106.724 232.001 106.464 231.894C106.204 231.787 105.978 231.624 105.784 231.404C105.598 231.184 105.504 230.894 105.504 230.534C105.504 230.241 105.591 229.974 105.764 229.734C105.938 229.487 106.184 229.294 106.504 229.154C106.831 229.014 107.204 228.944 107.624 228.944C108.251 228.944 108.754 229.104 109.134 229.424C109.521 229.737 109.728 230.167 109.754 230.714H108.614C108.594 230.467 108.494 230.271 108.314 230.124C108.134 229.977 107.891 229.904 107.584 229.904C107.284 229.904 107.054 229.961 106.894 230.074C106.734 230.187 106.654 230.337 106.654 230.524C106.654 230.671 106.708 230.794 106.814 230.894C106.921 230.994 107.051 231.074 107.204 231.134C107.358 231.187 107.584 231.257 107.884 231.344C108.284 231.451 108.611 231.561 108.864 231.674C109.124 231.781 109.348 231.941 109.534 232.154C109.721 232.367 109.818 232.651 109.824 233.004C109.824 233.317 109.738 233.597 109.564 233.844C109.391 234.091 109.144 234.284 108.824 234.424C108.511 234.564 108.141 234.634 107.714 234.634Z" fill="black"/>
<rect x="72.1248" y="262.544" width="74" height="18" rx="9" fill="#F0998D"/>
<path d="M82.8068 274.607C82.3928 274.607 82.0208 274.535 81.6908 274.391C81.3668 274.241 81.1118 274.037 80.9258 273.779C80.7398 273.515 80.6438 273.212 80.6378 272.87H81.5108C81.5408 273.164 81.6608 273.413 81.8708 273.617C82.0868 273.815 82.3988 273.914 82.8068 273.914C83.1968 273.914 83.5028 273.818 83.7248 273.626C83.9528 273.428 84.0668 273.176 84.0668 272.87C84.0668 272.63 84.0008 272.435 83.8688 272.285C83.7368 272.135 83.5718 272.021 83.3738 271.943C83.1758 271.865 82.9088 271.781 82.5728 271.691C82.1588 271.583 81.8258 271.475 81.5738 271.367C81.3278 271.259 81.1148 271.091 80.9348 270.863C80.7608 270.629 80.6738 270.317 80.6738 269.927C80.6738 269.585 80.7608 269.282 80.9348 269.018C81.1088 268.754 81.3518 268.55 81.6638 268.406C81.9818 268.262 82.3448 268.19 82.7528 268.19C83.3408 268.19 83.8208 268.337 84.1928 268.631C84.5708 268.925 84.7838 269.315 84.8318 269.801H83.9318C83.9018 269.561 83.7758 269.351 83.5538 269.171C83.3318 268.985 83.0378 268.892 82.6718 268.892C82.3298 268.892 82.0508 268.982 81.8348 269.162C81.6188 269.336 81.5108 269.582 81.5108 269.9C81.5108 270.128 81.5738 270.314 81.6998 270.458C81.8318 270.602 81.9908 270.713 82.1768 270.791C82.3688 270.863 82.6358 270.947 82.9778 271.043C83.3918 271.157 83.7248 271.271 83.9768 271.385C84.2288 271.493 84.4448 271.664 84.6248 271.898C84.8048 272.126 84.8948 272.438 84.8948 272.834C84.8948 273.14 84.8138 273.428 84.6518 273.698C84.4898 273.968 84.2498 274.187 83.9318 274.355C83.6138 274.523 83.2388 274.607 82.8068 274.607ZM88.233 269.522C88.833 269.522 89.319 269.705 89.691 270.071C90.063 270.431 90.249 270.953 90.249 271.637V274.544H89.439V271.754C89.439 271.262 89.316 270.887 89.07 270.629C88.824 270.365 88.488 270.233 88.062 270.233C87.63 270.233 87.285 270.368 87.027 270.638C86.775 270.908 86.649 271.301 86.649 271.817V274.544H85.83V269.612H86.649V270.314C86.811 270.062 87.03 269.867 87.306 269.729C87.588 269.591 87.897 269.522 88.233 269.522ZM95.8168 271.889C95.8168 272.045 95.8078 272.21 95.7898 272.384H91.8478C91.8778 272.87 92.0428 273.251 92.3428 273.527C92.6488 273.797 93.0178 273.932 93.4498 273.932C93.8038 273.932 94.0978 273.851 94.3318 273.689C94.5718 273.521 94.7398 273.299 94.8358 273.023H95.7178C95.5858 273.497 95.3218 273.884 94.9258 274.184C94.5298 274.478 94.0378 274.625 93.4498 274.625C92.9818 274.625 92.5618 274.52 92.1898 274.31C91.8238 274.1 91.5358 273.803 91.3258 273.419C91.1158 273.029 91.0108 272.579 91.0108 272.069C91.0108 271.559 91.1128 271.112 91.3168 270.728C91.5208 270.344 91.8058 270.05 92.1718 269.846C92.5438 269.636 92.9698 269.531 93.4498 269.531C93.9178 269.531 94.3318 269.633 94.6918 269.837C95.0518 270.041 95.3278 270.323 95.5198 270.683C95.7178 271.037 95.8168 271.439 95.8168 271.889ZM94.9708 271.718C94.9708 271.406 94.9018 271.139 94.7638 270.917C94.6258 270.689 94.4368 270.518 94.1968 270.404C93.9628 270.284 93.7018 270.224 93.4138 270.224C92.9998 270.224 92.6458 270.356 92.3518 270.62C92.0638 270.884 91.8988 271.25 91.8568 271.718H94.9708ZM96.3219 272.06C96.3219 271.556 96.4239 271.115 96.6279 270.737C96.8319 270.353 97.1109 270.056 97.4649 269.846C97.8249 269.636 98.2239 269.531 98.6619 269.531C99.0939 269.531 99.4689 269.624 99.7869 269.81C100.105 269.996 100.342 270.23 100.498 270.512V269.612H101.326V274.544H100.498V273.626C100.336 273.914 100.093 274.154 99.7689 274.346C99.4509 274.532 99.0789 274.625 98.6529 274.625C98.2149 274.625 97.8189 274.517 97.4649 274.301C97.1109 274.085 96.8319 273.782 96.6279 273.392C96.4239 273.002 96.3219 272.558 96.3219 272.06ZM100.498 272.069C100.498 271.697 100.423 271.373 100.273 271.097C100.123 270.821 99.9189 270.611 99.6609 270.467C99.4089 270.317 99.1299 270.242 98.8239 270.242C98.5179 270.242 98.2389 270.314 97.9869 270.458C97.7349 270.602 97.5339 270.812 97.3839 271.088C97.2339 271.364 97.1589 271.688 97.1589 272.06C97.1589 272.438 97.2339 272.768 97.3839 273.05C97.5339 273.326 97.7349 273.539 97.9869 273.689C98.2389 273.833 98.5179 273.905 98.8239 273.905C99.1299 273.905 99.4089 273.833 99.6609 273.689C99.9189 273.539 100.123 273.326 100.273 273.05C100.423 272.768 100.498 272.441 100.498 272.069ZM105.194 274.544L103.259 272.366V274.544H102.44V267.884H103.259V271.799L105.158 269.612H106.301L103.979 272.069L106.31 274.544H105.194ZM111.302 271.889C111.302 272.045 111.293 272.21 111.275 272.384H107.333C107.363 272.87 107.528 273.251 107.828 273.527C108.134 273.797 108.503 273.932 108.935 273.932C109.289 273.932 109.583 273.851 109.817 273.689C110.057 273.521 110.225 273.299 110.321 273.023H111.203C111.071 273.497 110.807 273.884 110.411 274.184C110.015 274.478 109.523 274.625 108.935 274.625C108.467 274.625 108.047 274.52 107.675 274.31C107.309 274.1 107.021 273.803 106.811 273.419C106.601 273.029 106.496 272.579 106.496 272.069C106.496 271.559 106.598 271.112 106.802 270.728C107.006 270.344 107.291 270.05 107.657 269.846C108.029 269.636 108.455 269.531 108.935 269.531C109.403 269.531 109.817 269.633 110.177 269.837C110.537 270.041 110.813 270.323 111.005 270.683C111.203 271.037 111.302 271.439 111.302 271.889ZM110.456 271.718C110.456 271.406 110.387 271.139 110.249 270.917C110.111 270.689 109.922 270.518 109.682 270.404C109.448 270.284 109.187 270.224 108.899 270.224C108.485 270.224 108.131 270.356 107.837 270.62C107.549 270.884 107.384 271.25 107.342 271.718H110.456ZM112.932 270.413C113.076 270.131 113.28 269.912 113.544 269.756C113.814 269.6 114.141 269.522 114.525 269.522V270.368H114.309C113.391 270.368 112.932 270.866 112.932 271.862V274.544H112.113V269.612H112.932V270.413ZM116.946 274.625C116.568 274.625 116.229 274.562 115.929 274.436C115.629 274.304 115.392 274.124 115.218 273.896C115.044 273.662 114.948 273.395 114.93 273.095H115.776C115.8 273.341 115.914 273.542 116.118 273.698C116.328 273.854 116.601 273.932 116.937 273.932C117.249 273.932 117.495 273.863 117.675 273.725C117.855 273.587 117.945 273.413 117.945 273.203C117.945 272.987 117.849 272.828 117.657 272.726C117.465 272.618 117.168 272.513 116.766 272.411C116.4 272.315 116.1 272.219 115.866 272.123C115.638 272.021 115.44 271.874 115.272 271.682C115.11 271.484 115.029 271.226 115.029 270.908C115.029 270.656 115.104 270.425 115.254 270.215C115.404 270.005 115.617 269.84 115.893 269.72C116.169 269.594 116.484 269.531 116.838 269.531C117.384 269.531 117.825 269.669 118.161 269.945C118.497 270.221 118.677 270.599 118.701 271.079H117.882C117.864 270.821 117.759 270.614 117.567 270.458C117.381 270.302 117.129 270.224 116.811 270.224C116.517 270.224 116.283 270.287 116.109 270.413C115.935 270.539 115.848 270.704 115.848 270.908C115.848 271.07 115.899 271.205 116.001 271.313C116.109 271.415 116.241 271.499 116.397 271.565C116.559 271.625 116.781 271.694 117.063 271.772C117.417 271.868 117.705 271.964 117.927 272.06C118.149 272.15 118.338 272.288 118.494 272.474C118.656 272.66 118.74 272.903 118.746 273.203C118.746 273.473 118.671 273.716 118.521 273.932C118.371 274.148 118.158 274.319 117.882 274.445C117.612 274.565 117.3 274.625 116.946 274.625Z" fill="white"/>
<path d="M136.64 273.528C136.675 273.563 136.703 273.604 136.722 273.65C136.741 273.696 136.751 273.745 136.751 273.794C136.751 273.843 136.741 273.892 136.722 273.938C136.703 273.983 136.675 274.025 136.64 274.059C136.57 274.129 136.474 274.168 136.375 274.168C136.275 274.168 136.18 274.129 136.109 274.059L134.125 272.075L132.14 274.059C132.07 274.129 131.974 274.168 131.875 274.168C131.775 274.168 131.68 274.129 131.609 274.059C131.574 274.025 131.546 273.983 131.527 273.938C131.509 273.892 131.499 273.843 131.499 273.794C131.499 273.745 131.509 273.696 131.527 273.65C131.546 273.604 131.574 273.563 131.609 273.528L133.593 271.544L131.609 269.559C131.539 269.489 131.499 269.393 131.499 269.294C131.499 269.245 131.509 269.196 131.528 269.15C131.547 269.105 131.574 269.063 131.609 269.028C131.644 268.993 131.685 268.966 131.731 268.947C131.777 268.928 131.825 268.918 131.875 268.918C131.974 268.918 132.07 268.958 132.14 269.028L134.125 271.013L136.109 269.028C136.18 268.958 136.275 268.918 136.375 268.918C136.474 268.918 136.57 268.958 136.64 269.028C136.711 269.099 136.75 269.194 136.75 269.294C136.75 269.393 136.711 269.489 136.64 269.559L134.656 271.544L136.64 273.528Z" fill="white"/>
<rect x="154.125" y="262.544" width="52" height="18" rx="9" fill="#F0998D"/>
<path d="M167.75 274.544H166.931L163.637 269.549V274.544H162.818V268.262H163.637L166.931 273.248V268.262H167.75V274.544ZM169.299 268.811C169.143 268.811 169.011 268.757 168.903 268.649C168.795 268.541 168.741 268.409 168.741 268.253C168.741 268.097 168.795 267.965 168.903 267.857C169.011 267.749 169.143 267.695 169.299 267.695C169.449 267.695 169.575 267.749 169.677 267.857C169.785 267.965 169.839 268.097 169.839 268.253C169.839 268.409 169.785 268.541 169.677 268.649C169.575 268.757 169.449 268.811 169.299 268.811ZM169.695 269.612V274.544H168.876V269.612H169.695ZM173.575 274.544L171.64 272.366V274.544H170.821V267.884H171.64V271.799L173.539 269.612H174.682L172.36 272.069L174.691 274.544H173.575ZM179.683 271.889C179.683 272.045 179.674 272.21 179.656 272.384H175.714C175.744 272.87 175.909 273.251 176.209 273.527C176.515 273.797 176.884 273.932 177.316 273.932C177.67 273.932 177.964 273.851 178.198 273.689C178.438 273.521 178.606 273.299 178.702 273.023H179.584C179.452 273.497 179.188 273.884 178.792 274.184C178.396 274.478 177.904 274.625 177.316 274.625C176.848 274.625 176.428 274.52 176.056 274.31C175.69 274.1 175.402 273.803 175.192 273.419C174.982 273.029 174.877 272.579 174.877 272.069C174.877 271.559 174.979 271.112 175.183 270.728C175.387 270.344 175.672 270.05 176.038 269.846C176.41 269.636 176.836 269.531 177.316 269.531C177.784 269.531 178.198 269.633 178.558 269.837C178.918 270.041 179.194 270.323 179.386 270.683C179.584 271.037 179.683 271.439 179.683 271.889ZM178.837 271.718C178.837 271.406 178.768 271.139 178.63 270.917C178.492 270.689 178.303 270.518 178.063 270.404C177.829 270.284 177.568 270.224 177.28 270.224C176.866 270.224 176.512 270.356 176.218 270.62C175.93 270.884 175.765 271.25 175.723 271.718H178.837Z" fill="white"/>
<path d="M196.64 273.528C196.675 273.563 196.703 273.604 196.722 273.65C196.741 273.696 196.751 273.745 196.751 273.794C196.751 273.843 196.741 273.892 196.722 273.938C196.703 273.983 196.675 274.025 196.64 274.059C196.57 274.129 196.474 274.168 196.375 274.168C196.275 274.168 196.18 274.129 196.109 274.059L194.125 272.075L192.14 274.059C192.07 274.129 191.974 274.168 191.875 274.168C191.775 274.168 191.68 274.129 191.609 274.059C191.574 274.025 191.546 273.983 191.527 273.938C191.509 273.892 191.499 273.843 191.499 273.794C191.499 273.745 191.509 273.696 191.527 273.65C191.546 273.604 191.574 273.563 191.609 273.528L193.593 271.544L191.609 269.559C191.539 269.489 191.499 269.393 191.499 269.294C191.499 269.245 191.509 269.196 191.528 269.15C191.547 269.105 191.574 269.063 191.609 269.028C191.644 268.993 191.685 268.966 191.731 268.947C191.777 268.928 191.825 268.918 191.875 268.918C191.974 268.918 192.07 268.958 192.14 269.028L194.125 271.013L196.109 269.028C196.18 268.958 196.275 268.918 196.375 268.918C196.474 268.918 196.57 268.958 196.64 269.028C196.711 269.099 196.75 269.194 196.75 269.294C196.75 269.393 196.711 269.489 196.64 269.559L194.656 271.544L196.64 273.528Z" fill="white"/>
<rect x="214.125" y="262.544" width="56" height="18" rx="9" fill="#F0998D"/>
<path d="M226.22 274.544L223.637 271.682V274.544H222.818V268.271H223.637V271.178L226.229 268.271H227.264L224.42 271.412L227.291 274.544H226.22ZM228.358 268.811C228.202 268.811 228.07 268.757 227.962 268.649C227.854 268.541 227.8 268.409 227.8 268.253C227.8 268.097 227.854 267.965 227.962 267.857C228.07 267.749 228.202 267.695 228.358 267.695C228.508 267.695 228.634 267.749 228.736 267.857C228.844 267.965 228.898 268.097 228.898 268.253C228.898 268.409 228.844 268.541 228.736 268.649C228.634 268.757 228.508 268.811 228.358 268.811ZM228.754 269.612V274.544H227.935V269.612H228.754ZM229.574 272.069C229.574 271.559 229.676 271.115 229.88 270.737C230.084 270.353 230.366 270.056 230.726 269.846C231.092 269.636 231.509 269.531 231.977 269.531C232.583 269.531 233.081 269.678 233.471 269.972C233.867 270.266 234.128 270.674 234.254 271.196H233.372C233.288 270.896 233.123 270.659 232.877 270.485C232.637 270.311 232.337 270.224 231.977 270.224C231.509 270.224 231.131 270.386 230.843 270.71C230.555 271.028 230.411 271.481 230.411 272.069C230.411 272.663 230.555 273.122 230.843 273.446C231.131 273.77 231.509 273.932 231.977 273.932C232.337 273.932 232.637 273.848 232.877 273.68C233.117 273.512 233.282 273.272 233.372 272.96H234.254C234.122 273.464 233.858 273.869 233.462 274.175C233.066 274.475 232.571 274.625 231.977 274.625C231.509 274.625 231.092 274.52 230.726 274.31C230.366 274.1 230.084 273.803 229.88 273.419C229.676 273.035 229.574 272.585 229.574 272.069ZM237.831 274.544L235.896 272.366V274.544H235.077V267.884H235.896V271.799L237.795 269.612H238.938L236.616 272.069L238.947 274.544H237.831ZM241.185 274.625C240.807 274.625 240.468 274.562 240.168 274.436C239.868 274.304 239.631 274.124 239.457 273.896C239.283 273.662 239.187 273.395 239.169 273.095H240.015C240.039 273.341 240.153 273.542 240.357 273.698C240.567 273.854 240.84 273.932 241.176 273.932C241.488 273.932 241.734 273.863 241.914 273.725C242.094 273.587 242.184 273.413 242.184 273.203C242.184 272.987 242.088 272.828 241.896 272.726C241.704 272.618 241.407 272.513 241.005 272.411C240.639 272.315 240.339 272.219 240.105 272.123C239.877 272.021 239.679 271.874 239.511 271.682C239.349 271.484 239.268 271.226 239.268 270.908C239.268 270.656 239.343 270.425 239.493 270.215C239.643 270.005 239.856 269.84 240.132 269.72C240.408 269.594 240.723 269.531 241.077 269.531C241.623 269.531 242.064 269.669 242.4 269.945C242.736 270.221 242.916 270.599 242.94 271.079H242.121C242.103 270.821 241.998 270.614 241.806 270.458C241.62 270.302 241.368 270.224 241.05 270.224C240.756 270.224 240.522 270.287 240.348 270.413C240.174 270.539 240.087 270.704 240.087 270.908C240.087 271.07 240.138 271.205 240.24 271.313C240.348 271.415 240.48 271.499 240.636 271.565C240.798 271.625 241.02 271.694 241.302 271.772C241.656 271.868 241.944 271.964 242.166 272.06C242.388 272.15 242.577 272.288 242.733 272.474C242.895 272.66 242.979 272.903 242.985 273.203C242.985 273.473 242.91 273.716 242.76 273.932C242.61 274.148 242.397 274.319 242.121 274.445C241.851 274.565 241.539 274.625 241.185 274.625Z" fill="white"/>
<path d="M260.64 273.528C260.675 273.563 260.703 273.604 260.722 273.65C260.741 273.696 260.751 273.745 260.751 273.794C260.751 273.843 260.741 273.892 260.722 273.938C260.703 273.983 260.675 274.025 260.64 274.059C260.57 274.129 260.474 274.168 260.375 274.168C260.275 274.168 260.18 274.129 260.109 274.059L258.125 272.075L256.14 274.059C256.07 274.129 255.974 274.168 255.875 274.168C255.775 274.168 255.68 274.129 255.609 274.059C255.574 274.025 255.546 273.983 255.527 273.938C255.509 273.892 255.499 273.843 255.499 273.794C255.499 273.745 255.509 273.696 255.527 273.65C255.546 273.604 255.574 273.563 255.609 273.528L257.593 271.544L255.609 269.559C255.539 269.489 255.499 269.393 255.499 269.294C255.499 269.245 255.509 269.196 255.528 269.15C255.547 269.105 255.574 269.063 255.609 269.028C255.644 268.993 255.685 268.966 255.731 268.947C255.777 268.928 255.825 268.918 255.875 268.918C255.974 268.918 256.07 268.958 256.14 269.028L258.125 271.013L260.109 269.028C260.18 268.958 260.275 268.918 260.375 268.918C260.474 268.918 260.57 268.958 260.64 269.028C260.711 269.099 260.75 269.194 260.75 269.294C260.75 269.393 260.711 269.489 260.64 269.559L258.656 271.544L260.64 273.528Z" fill="white"/>
<rect x="64.6248" y="247.044" width="223.875" height="49" rx="7.5" stroke="#E0E0E0"/>
</g>
<defs>
<filter id="filter0_d_4_2100" x="0.124756" y="0.543945" width="352.875" height="376" filterUnits="userSpaceOnUse" color-interpolation-filters="sRGB">
<feFlood flood-opacity="0" result="BackgroundImageFix"/>
<feColorMatrix in="SourceAlpha" type="matrix" values="0 0 0 0 0 0 0 0 0 0 0 0 0 0 0 0 0 0 127 0" result="hardAlpha"/>
<feOffset dy="16"/>
<feGaussianBlur stdDeviation="20"/>
<feColorMatrix type="matrix" values="0 0 0 0 0 0 0 0 0 0 0 0 0 0 0 0 0 0 0.1 0"/>
<feBlend mode="normal" in2="BackgroundImageFix" result="effect1_dropShadow_4_2100"/>
<feBlend mode="normal" in="SourceGraphic" in2="effect1_dropShadow_4_2100" result="shape"/>
</filter>
</defs>
</svg>
