<svg xmlns="http://www.w3.org/2000/svg" xmlns:xlink="http://www.w3.org/1999/xlink" width="746.005" height="674.338" viewBox="0 0 746.005 674.338"><defs><style>.a{fill:#36c;}.b{fill:#26d15b;}.c{fill:#cce9ff;}.d{fill:#cce9fe;}.e{fill:#0b2d4e;}.f{fill:#061f33;}.g{fill:#1565c0;}.h{clip-path:url(#a);}.i{fill:#2a94f4;}.j{fill:#f8a17a;}.k{fill:#e5785c;}.l{fill:#ccc;}.m,.o{fill:#fff;}.n{fill:#3f91ac;}.o{opacity:0.2;}.p{fill:#1a8e2b;}.q{clip-path:url(#b);}.r,.w{fill:none;stroke-miterlimit:10;}.r{stroke:#26d15b;stroke-width:5px;}.s{clip-path:url(#c);}.t{fill:#efb126;}.u{fill:#ffc73c;}.v{fill:#231f20;opacity:0.1;}.w{stroke:#fff;stroke-width:4px;}</style><clipPath id="a"><path class="a" d="M757.15,1254.324c-4.286-18.151-6.509-36.721,3.205-49.085,4.387-5.583,12.2-9.472,18.6-12.237,12.476-5.393,25.231-12.641,38.586-14.992,14.081-2.477,29.741-4,43.774-.461,8.913,2.251,17.253,6.417,25.223,10.911,6.916,3.9,15.4,7.257,18.758,14.514a493.6,493.6,0,0,1,21.347,54.353c5.011,15.414,10.511,31.572,2.615,47.193-2.559,5.063-6.276,9.4-9.2,14.231-3.26,5.388-4.476,10.448-4.9,16.663-.975,14.178-.6,28.4-.555,42.6.012,4.092-.042,8.346-1.834,12.025-3.532,7.253-13.132,7.355-20.047,7.343l-68.375-.118c-9.483-.017-16.728,1.144-25.63,2.974-7.492,1.539-13.924-2.242-17.518-9.212-3.4-6.6-3.662-14.307-4.026-21.722a469.13,469.13,0,0,0-12.21-85.675C763.06,1275.672,759.734,1265.266,757.15,1254.324Z" transform="translate(-753.496 -1175.463)"/></clipPath><clipPath id="b"><path d="M1595.316,961.519c4.336-.025,8.546-.583,11.515-4.837,5.83-8.349,14.729-15.844,24.709-7.354,5.756,4.9,1.427,14.97,6.382,19.815,4.381,4.285,9.951,3.577,12.192,10.689,3.3,10.462-7.092,19.63-10.427,28.677-2.8,7.592,3.5,10.486,6.323,16.4,2.18,4.561,1.06,9.447-1.316,13.807-4.189,7.689-13.476,13.879-11.324,23.835,1.8,8.309,3.466,15.715-3.866,22.012-5.026,4.317-14.351,8.251-13.641,16.241.251,2.828,2.208,5.238,2.745,8.025.849,4.412-2.008,8.7-5.327,11.733-7.551,6.889-14.183,13.387-19.839,22.055-2.417,3.7-12.093,12.067-8.226,17.131-7.029-9.2-14.458-18.13-20.845-27.807-5.253-7.958-13.171-19.6-7.781-29.4,1.676-3.049,4.794-5.321,5.648-8.694,1.542-6.091-4.442-11.738-6.667-16.92-3.493-8.136-.929-17.585,5.224-23.693,2.911-2.89,6.07-6.067,6.5-10.147.467-4.454-2.326-8.608-3.593-12.717a63.393,63.393,0,0,1-2.323-11.75,24.437,24.437,0,0,1,.236-8.338c1.242-5.168,5.9-8.04,9.341-11.707,8.2-8.729,3.89-18.993,7.472-29.138C1581.642,960.332,1588.631,961.558,1595.316,961.519Z" transform="translate(-1553.995 -945.59)"/></clipPath><clipPath id="c"><path class="b" d="M1739.82,1135.248c-3.148.582-6.279.76-9.022-1.914-5.385-5.25-12.877-9.455-18.941-1.915-3.5,4.349,1.036,11.057-1.886,15.257-2.585,3.714-6.723,3.972-7.364,9.441-.943,8.045,7.861,13.257,11.532,19.358,3.081,5.12-1.084,8.09-2.316,12.773-.95,3.611.539,7,2.866,9.833,4.1,5,11.7,8.2,11.513,15.722-.152,6.276-.339,11.879,5.852,15.432,4.243,2.436,11.552,4,12.143,9.893.208,2.086-.877,4.1-.88,6.2-.005,3.318,2.662,6.036,5.489,7.773,6.431,3.952,12.141,7.747,17.443,13.252,2.266,2.352,10.442,7.079,8.338,11.288,3.825-7.649,7.978-15.153,11.271-23.056,2.709-6.5,6.842-16.04,1.575-22.4-1.638-1.979-4.214-3.2-5.3-5.524-1.962-4.2,1.6-9.129,2.494-13.2,1.407-6.385-1.76-12.884-7.068-16.463-2.512-1.693-5.243-3.561-6.118-6.461-.955-3.166.5-6.566.846-9.722a46.786,46.786,0,0,0,.059-8.844,18.049,18.049,0,0,0-1.325-6.016c-1.617-3.577-5.39-5.016-8.4-7.2-7.156-5.2-5.451-13.239-9.453-20.1C1749.575,1132.494,1744.675,1134.35,1739.82,1135.248Z" transform="translate(-1702.537 -1127.321)"/></clipPath></defs><g transform="translate(-25.667 -107.184)"><path class="c" d="M746.24,658.127c-45.17,92.33-151.225,134.814-254.093,87.808-56.27-25.659-99.9-78.869-157.05-102.951C270.914,615.853,199.368,594.3,148.7,537.93,94.742,477.885,72.541,388.079,89.8,311.1c21.1-93.7,108.8-115.465,182.987-153.532C577.1,1.515,914.83,114.14,768.77,551.5,756.571,588.091,761.187,627.526,746.24,658.127Z" transform="translate(-58.386 16.28)"/><path class="d" d="M278,0c153.532,0,278,124.463,278,278s-124.463,278-278,278S0,431.528,0,278,124.463,0,278,0Z" transform="translate(143.071 115.184)"/><path class="e" d="M788.915,1020.643c18.257,6.46,40.275,5.8,56.886-4.856,16.329-10.474,31.2-18.038,51.3-17.671,17.952.327,32.8,10.031,50.185,12.1,13.79,1.638,27.8-4.375,37.794-14.016,9.756-9.412,16.235-23.762,11.993-36.637-2.221-6.741-7.075-12.3-9.846-18.838-6.389-15.071,10.434-24.164,6.251-40.028-3.558-13.492-18.363-23.116-18.143-37.068.161-10.213,8.068-18.129,10.852-27.577,2.809-9.533,2.188-20.211-2.767-28.92A34.559,34.559,0,0,0,967.148,792.6c-6.087-2.594-12.888-2.642-17.595-7.962-8.388-9.48-11.466-19.754-22.975-26.685-9.744-5.868-22.613-6.241-33.791-5.216-24.841,2.277-48.949,15.388-62.941,36.27-4.958,7.4-8.537,14.974-8.661,23.769-.136,9.615-.133,19.286-6.024,27.461-4.946,6.864-12.886,10.879-20.758,13.976s-16.124,5.6-23.035,10.482-12.4,12.839-11.593,21.26c.675,7.048,5.554,13.173,6.2,20.224,1.181,12.821-11.17,22.133-18.785,32.515a50.514,50.514,0,0,0-4.4,51.232c9.239,18.585,26.023,22.776,43.609,29.77Q787.643,1020.193,788.915,1020.643Z" transform="translate(-473.017 -490.026)"/><path class="f" d="M805.823,1017.052c-.648,15.755,3,27.587,17.412,35.38,11.476,6.206,25.216,8.242,37.88,8.554,21.24.524,44.905-4.954,60.793-19.873,2.883-2.708,5.651-6.027,5.859-9.977.19-3.591-1.786-6.973-1.96-10.565-.294-6.057,4.416-11.074,6.521-16.761,2.781-7.511.891-15.9-1.607-23.505s-5.624-15.292-5.249-23.292c.487-10.378,6.722-19.437,11.715-28.548s8.922-20.194,4.656-29.666A21.207,21.207,0,0,0,925.477,887c-7.238-.8-13.741,7.468-18.377,12.024a113.57,113.57,0,0,1-20.667,16.075c-10.342,6.276-21.7,10.9-31.424,18.1-5.887,4.352-12.2,10.326-15.011,17.258-3.167,7.812,2.379,15.373-4.326,22.558-4.326,4.635-10.969,6.212-16.2,9.8C808.275,990.472,806.334,1004.614,805.823,1017.052Z" transform="translate(-445.067 -571.613)"/><path class="g" d="M631.774,1311.155c-14.913-22.98-24.193-51.185-11.235-77.132,1.313-2.63,2.893-5.5,5.682-6.427,6-1.994,14.136.15,19.353,3.211,18.094,10.616,29.167,30.594,39.332,48.368,10.561,18.467,19.732,37.69,30.346,56.127,4.3,7.468,8.64,15.036,10.945,23.338,2.019,7.272,2.241,15.6-.515,22.715-11.914,30.763-44.673-6.92-54.644-18.3A455.151,455.151,0,0,1,631.774,1311.155Z" transform="translate(-153.724 -777.56)"/><g transform="translate(339.459 429.024)"><path class="g" d="M757.15,1254.324c-4.286-18.151-6.509-36.721,3.205-49.085,4.387-5.583,12.2-9.472,18.6-12.237,12.476-5.393,25.231-12.641,38.586-14.992,14.081-2.477,29.741-4,43.774-.461,8.913,2.251,17.253,6.417,25.223,10.911,6.916,3.9,15.4,7.257,18.758,14.514a493.6,493.6,0,0,1,21.347,54.353c5.011,15.414,10.511,31.572,2.615,47.193-2.559,5.063-6.276,9.4-9.2,14.231-3.26,5.388-4.476,10.448-4.9,16.663-.975,14.178-.6,28.4-.555,42.6.012,4.092-.042,8.346-1.834,12.025-3.532,7.253-13.132,7.355-20.047,7.343l-68.375-.118c-9.483-.017-16.728,1.144-25.63,2.974-7.492,1.539-13.924-2.242-17.518-9.212-3.4-6.6-3.662-14.307-4.026-21.722a469.13,469.13,0,0,0-12.21-85.675C763.06,1275.672,759.734,1265.266,757.15,1254.324Z" transform="translate(-753.496 -1175.463)"/><g class="h" transform="translate(0)"><path class="g" d="M903.05,1190.043c-5.365-9.026-6.583-20.3.444-29,3.214-3.976,8.9-4.422,13.757-4.513a115.664,115.664,0,0,1,28.471,3.017c8.879,2.077,17.934,5.6,21.78,14.561a22.426,22.426,0,0,1-1.9,20.461,25.206,25.206,0,0,1-15.42,11.138c-10.219,2.433-22.181,2.106-31.932-1.988A33.37,33.37,0,0,1,903.05,1190.043Z" transform="translate(-846.609 -1163.981)"/><path class="g" d="M778.894,1470.27q.106-20.877.212-41.754c.025-4.845-3.121-34.339,4.416-34a4.262,4.262,0,0,1,2.22.929c3.75,2.682,5.677,7.174,7.429,11.438,5.494,13.369,10.106,34.771,21.541,44.131,11.624,9.514,29.5,13.525,43.941,15.809,16.869,2.667,34.014,2.864,51.06,3.9,11.026.671,23.191,2.258,30.435,10.6,5.172,5.956,7.806,14.885,10.568,22.161,2.414,6.359,4.337,13.914-.562,19.673a22.854,22.854,0,0,1-7.91,5.446c-10.638,5.015-22.266,7.544-33.866,9.485-32.462,5.433-65.551,6.562-98.428,5-7.029-.335-14.651-1.035-19.836-5.794-3.858-3.54-5.677-8.751-6.969-13.825C778.74,1506.175,778.8,1488.108,778.894,1470.27Z" transform="translate(-783.313 -1308.192)"/></g></g><path class="i" d="M846.486,976.122c12.437,12.8,1.156,44.061-18.677,39.536-21.311-4.862-18.105-38.073,1.166-43.526C836.49,970.006,842.483,972,846.486,976.122Z" transform="translate(-356.003 -622.712)"/><path class="g" d="M1114.722,1322.925q-5.719,10.316-11.321,20.7c-7.551,14.068-21.57,45.326.874,53.048,11.308,3.891,17.776.086,25.251-8.152a476.258,476.258,0,0,0,71.5-103.585c7.112-13.952,26-50.309,3.059-58.616a27.861,27.861,0,0,0-22.374,1.636,45.048,45.048,0,0,0-8.481,6.26c-16.553,14.762-28.341,33.81-38.827,53.128C1127.921,1299.278,1121.286,1311.085,1114.722,1322.925Z" transform="translate(-829.339 -776.278)"/><path class="j" d="M929.547,1142.671c-6.829-2.191-12.454-6.437-14.562-13.185-1.913-6.125,1.1-13.015,1.64-19.195a117.158,117.158,0,0,0,.192-17.811c-.36-5.484-.884-11.2-.041-16.66.479-3.124,2.194-2.589,5.354-3.831s6.7-1.252,10.138-1.244c7.031.018,25.357-.493,29.7,5.677,1.995,2.832,2.152,6.4,2.247,9.768.114,4.071.835,9.343,1.5,15.022.3,2.529.114,5.049.5,7.559a47.523,47.523,0,0,0,2.437,8.2c3.536,10.186.225,19.874-10.791,24.538A43.527,43.527,0,0,1,929.547,1142.671Z" transform="translate(-514.213 -682.984)"/><path class="k" d="M919.89,1075.82c.479-3.124,2.194-2.589,5.354-3.831s6.7-1.252,10.138-1.244c7.03.018,25.357-.493,29.7,5.677,1.995,2.832,2.152,6.4,2.247,9.768.114,4.071.835,9.343,1.5,15.022.3,2.529.113,5.049.5,7.559a34.975,34.975,0,0,0,1.755,6.271,37.255,37.255,0,0,1-21.621,1.344c-12.808-3.153-22.507-11.124-29.424-21.488-.036-.806-.06-1.613-.112-2.417C919.57,1087,919.047,1081.286,919.89,1075.82Z" transform="translate(-517.291 -682.984)"/><path class="j" d="M837.968,896.095a85.953,85.953,0,0,1,3.767-25.688c10.422-31.905,50.223-39.787,74.19-16.885,26.727,25.54,16.5,86.605-11.653,108.056a31.584,31.584,0,0,1-26.9,5.3C849.715,959.459,837.794,925.421,837.968,896.095Z" transform="translate(-445.576 -543.394)"/><path class="j" d="M1053.518,981.427c-12.245-6.7-16.014,10.259-13.907,18.7a26.927,26.927,0,0,0,4.409,9.75c2.913,3.861,11.245,10.267,16.045,6.042,2.178-1.917,2.4-5.173,2.469-8.074C1062.714,1000.064,1061.819,985.966,1053.518,981.427Z" transform="translate(-655.895 -627.939)"/><g transform="translate(395.376 386.836)"><path class="g" d="M979.941,1090.9a62,62,0,0,0,9.05-.668l-.541-3.672a55.788,55.788,0,0,1-31.694-4.427,40.852,40.852,0,0,1-6.859-3.94,32.392,32.392,0,0,1-8.883-9.793l-3.2,1.875a36.134,36.134,0,0,0,9.909,10.925,44.56,44.56,0,0,0,7.475,4.3A58.746,58.746,0,0,0,979.941,1090.9Z" transform="translate(-937.81 -1068.402)"/></g><g transform="translate(438.096 399.362)"><path class="g" d="M924.436,1102.9c-4.477-3.842-14.435-3.513-17.718.476-2.433,2.957-1.69,6.71.988,9.21,3.169,2.958,7.089,2.785,11.042,1.894C923.7,1113.361,929.832,1107.528,924.436,1102.9Z" transform="translate(-905.241 -1100.191)"/></g><path class="k" d="M850.023,871.3C861,837.712,902.9,829.414,928.132,853.526a49.7,49.7,0,0,1,12.275,19.782,23.379,23.379,0,0,1-1.946,2.616c-3.461,4.01-8.241,6.63-13.049,8.853-14.047,6.493-29.187,10.3-44.4,13.154-1.121.21-2.248.417-3.374.639-4.187.826-8.344,1.858-12,4.013-10.337,6.093-5.892,19.5-13.465,25.368a7.233,7.233,0,0,1-2.07,1.119,113.036,113.036,0,0,1-4.049-30.723A90.478,90.478,0,0,1,850.023,871.3Z" transform="translate(-457.694 -542.976)"/><path class="e" d="M898.351,877.926c-4,1.483-7.941,3.165-11.206,5.875-9.234,7.664-2.707,20.185-9.247,27.191-5.794,6.207-14.593-2-16.9-7.728-4.246-10.562-4-22.316-3.684-33.695.175-6.346.364-12.782,2.224-18.851a46.364,46.364,0,0,1,10.689-17.608c13.59-14.664,34.1-22.287,53.956-21.036,15.528.978,42.768,14.027,30.595,33.8-2.778,4.51-7.078,7.859-11.47,10.82-12.831,8.651-27.169,14.827-41.731,20.067C900.506,877.144,899.426,877.528,898.351,877.926Z" transform="translate(-479.487 -526.167)"/><path class="g" d="M1055.789,970.748c17.284,4.433,23.964,36.993,4.682,43.475-20.72,6.965-35.3-23.045-21.7-37.747C1044.07,970.743,1050.226,969.322,1055.789,970.748Z" transform="translate(-663.309 -622.082)"/><path class="g" d="M1068.855,981.96c11.931,1.917,19.281,27.265,6.985,34.242-13.213,7.5-25.613-15.077-17.84-28.078C1061.031,983.053,1065.014,981.343,1068.855,981.96Z" transform="translate(-682.041 -629.115)"/><g transform="translate(383.156 268.938)"><path class="g" d="M872.707,851.223l4.61-.533c-3.127-27.024-1.795-61.552,22.309-72.58,11.415-5.222,44.1-11.017,58.491,8.4,1.73,1.943,2.889,3.573,2.889,3.573-8.922-27.531-50.99-21.827-63.31-16.19C871.057,786.078,869.4,822.671,872.707,851.223Z" transform="translate(-871.458 -769.217)"/></g><g transform="translate(470.915 480.545)"><rect class="l" width="94.779" height="18.556" transform="translate(0 125.512)"/><path class="l" d="M162.9,1433.519l23.92-121.776a6.859,6.859,0,0,1,6.73-5.537H352.569a6.8,6.8,0,0,1,5.511,2.827l.021-.02,7.343,8.681-6.514-1.429-23.551,119.9a6.858,6.858,0,0,1-6.73,5.537H169.634A6.858,6.858,0,0,1,162.9,1433.519Z" transform="translate(-84.39 -1306.206)"/><path class="m" d="M325.461,1463.46H166.447a6.858,6.858,0,0,1-6.73-8.18l23.92-121.776a6.858,6.858,0,0,1,6.73-5.537H349.381a6.859,6.859,0,0,1,6.73,8.18l-23.92,121.776A6.859,6.859,0,0,1,325.461,1463.46Z" transform="translate(-73.931 -1319.392)"/><path class="l" d="M393.826,1469.36c-1.467,8.214-9.315,14.873-17.529,14.873s-13.59-6.659-12.005-14.873,9.432-14.873,17.529-14.873S395.293,1461.146,393.826,1469.36Z" transform="translate(-192.314 -1396.055)"/><path class="n" d="M159.586,1342.344" transform="translate(122.725 -1328.104)"/></g><g transform="translate(166.92 464.61)"><g transform="translate(39.95)"><g transform="translate(0)"><path class="m" d="M1504.122,1353.068a14.4,14.4,0,0,1-.334-10.885c1.062-3.531,2.958-6.573,5.011-9.9a44.941,44.941,0,0,0,5.489-11.154,23.988,23.988,0,0,0-.27-13.354c-2.612-8.415-7.961-14.617-11.646-20.962a30.107,30.107,0,0,1-3.955-10.079,17.345,17.345,0,0,1,1.315-10.97c-3.044,2.664-4.519,6.981-4.718,11.161a28.4,28.4,0,0,0,2.5,12.276c3.2,7.642,7.993,13.846,9.859,20.553a18.018,18.018,0,0,1,.567,9.758c-.628,3.3-2.354,6.633-3.907,10.246a35.578,35.578,0,0,0-3.574,11.8C1500.1,1345.693,1501.045,1350.362,1504.122,1353.068Z" transform="translate(-1494.992 -1265.768)"/></g></g><g transform="translate(0 91.926)"><path class="g" d="M0,0H47.256a0,0,0,0,1,0,0V44.061A23.628,23.628,0,0,1,23.628,67.689h0A23.628,23.628,0,0,1,0,44.061V0A0,0,0,0,1,0,0Z" transform="translate(23.818)"/><path class="g" d="M1563.821,1537.9a20.822,20.822,0,1,1-20.518,20.82A20.671,20.671,0,0,1,1563.821,1537.9Zm0,34.214a13.4,13.4,0,1,0-13.2-13.395A13.3,13.3,0,0,0,1563.821,1572.111Z" transform="translate(-1543.303 -1522.588)"/><path class="o" d="M1481.08,1547.109h0a2.562,2.562,0,0,0,2.555-2.554v-32.942a2.562,2.562,0,0,0-2.555-2.555h0a2.563,2.563,0,0,0-2.555,2.555v32.942A2.562,2.562,0,0,0,1481.08,1547.109Z" transform="translate(-1417.072 -1505.113)"/><path class="i" d="M1539.845,1499.047v55.721a11.968,11.968,0,0,0,11.968,11.968H1540.9a11.968,11.968,0,0,1-11.968-11.968v-55.721Z" transform="translate(-1505.114 -1499.047)"/></g></g><g transform="translate(57.773 338.44)"><g transform="translate(49.213)"><path class="p" d="M1595.316,961.519c4.336-.025,8.546-.583,11.515-4.837,5.83-8.349,14.729-15.844,24.709-7.354,5.756,4.9,1.427,14.97,6.382,19.815,4.381,4.285,9.951,3.577,12.192,10.689,3.3,10.462-7.092,19.63-10.427,28.677-2.8,7.592,3.5,10.486,6.323,16.4,2.18,4.561,1.06,9.447-1.316,13.807-4.189,7.689-13.476,13.879-11.324,23.835,1.8,8.309,3.466,15.715-3.866,22.012-5.026,4.317-14.351,8.251-13.641,16.241.251,2.828,2.208,5.238,2.745,8.025.849,4.412-2.008,8.7-5.327,11.733-7.551,6.889-14.183,13.387-19.839,22.055-2.417,3.7-12.093,12.067-8.226,17.131-7.029-9.2-14.458-18.13-20.845-27.807-5.253-7.958-13.171-19.6-7.781-29.4,1.676-3.049,4.794-5.321,5.648-8.694,1.542-6.091-4.442-11.738-6.667-16.92-3.493-8.136-.929-17.585,5.224-23.693,2.911-2.89,6.07-6.067,6.5-10.147.467-4.454-2.326-8.608-3.593-12.717a63.393,63.393,0,0,1-2.323-11.75,24.437,24.437,0,0,1,.236-8.338c1.242-5.168,5.9-8.04,9.341-11.707,8.2-8.729,3.89-18.993,7.472-29.138C1581.642,960.332,1588.631,961.558,1595.316,961.519Z" transform="translate(-1553.995 -945.59)"/><g class="q" transform="translate(0)"><g transform="translate(5.361 -6.789)"><path class="r" d="M1605.994,1159.689c-3.046-34.9-.248-70.077,6.2-104.448,6.151-32.788,14.223-65.688,26.461-96.77a297.721,297.721,0,0,1,13.744-30.108" transform="translate(-1581.006 -928.363)"/><path class="r" d="M1592.572,1047.123a210.592,210.592,0,0,0-48.606,24.643c-3.817,2.607-5.942,3.4-9.124,6.756" transform="translate(-1493.629 -1000.324)"/><path class="r" d="M1563.569,1189.307a143.891,143.891,0,0,1,54.556-21.058" transform="translate(-1530.502 -1073.719)"/><path class="r" d="M1581.835,1294.353a123,123,0,0,1,53.879-27.044" transform="translate(-1555.289 -1133.743)"/><path class="r" d="M1692.666,1041.571a152.961,152.961,0,0,0-13.488-53.532" transform="translate(-1650.6 -964.523)"/><path class="r" d="M1734.344,1150.3a135.048,135.048,0,0,0-32.863-43.913" transform="translate(-1701.067 -1036.236)"/><path class="r" d="M1746.679,1279a50.609,50.609,0,0,0-5.577-14.708,90.678,90.678,0,0,0-11.057-14.632q-4.371-4.967-8.89-9.8" transform="translate(-1721.154 -1117.114)"/></g></g></g><g transform="translate(0 71.613)"><path class="p" d="M1739.82,1135.248c-3.148.582-6.279.76-9.022-1.914-5.385-5.25-12.877-9.455-18.941-1.915-3.5,4.349,1.036,11.057-1.886,15.257-2.585,3.714-6.723,3.972-7.364,9.441-.943,8.045,7.861,13.257,11.532,19.358,3.081,5.12-1.084,8.09-2.316,12.773-.95,3.611.539,7,2.866,9.833,4.1,5,11.7,8.2,11.513,15.722-.152,6.276-.339,11.879,5.852,15.432,4.243,2.436,11.552,4,12.143,9.893.208,2.086-.877,4.1-.88,6.2-.005,3.318,2.662,6.036,5.489,7.773,6.431,3.952,12.141,7.747,17.443,13.252,2.266,2.352,10.442,7.079,8.338,11.288,3.825-7.649,7.978-15.153,11.271-23.056,2.709-6.5,6.842-16.04,1.575-22.4-1.638-1.979-4.214-3.2-5.3-5.524-1.962-4.2,1.6-9.129,2.494-13.2,1.407-6.385-1.76-12.884-7.068-16.463-2.512-1.693-5.243-3.561-6.118-6.461-.955-3.166.5-6.566.846-9.722a46.786,46.786,0,0,0,.059-8.844,18.049,18.049,0,0,0-1.325-6.016c-1.617-3.577-5.39-5.016-8.4-7.2-7.156-5.2-5.451-13.239-9.453-20.1C1749.575,1132.494,1744.675,1134.35,1739.82,1135.248Z" transform="translate(-1702.537 -1127.321)"/><g class="s"><g transform="translate(-5.069 -3.648)"><path class="r" d="M1802.01,1279.438c-2.621-25.737-9.519-50.866-18.953-74.906-9-22.932-19.409-45.68-32.589-66.533a219.884,219.884,0,0,0-14.136-19.937" transform="translate(-1722.824 -1118.063)"/><path class="r" d="M1819.986,1213.886a155.523,155.523,0,0,1,38.668,11.148c3.13,1.362,4.781,1.646,7.553,3.638" transform="translate(-1819.986 -1176.126)"/><path class="r" d="M1834.345,1305.443a106.261,106.261,0,0,0-42.488-7.724" transform="translate(-1777.039 -1226.903)"/><path class="r" d="M1806.865,1379.257a90.838,90.838,0,0,0-42.825-12.159" transform="translate(-1738.598 -1268.963)"/><path class="r" d="M1816.792,1187.01a112.954,112.954,0,0,1,2.374-40.7" transform="translate(-1771.348 -1135.18)"/><path class="r" d="M1747.71,1258.67a99.72,99.72,0,0,1,17.759-36.4" transform="translate(-1690.767 -1181.205)"/><path class="r" d="M1728.473,1350.865a37.361,37.361,0,0,1,2.01-11.44,66.932,66.932,0,0,1,6-12.144q2.483-4.207,5.092-8.338" transform="translate(-1659.287 -1239.783)"/></g></g></g><path class="t" d="M1722.984,1504.96H1658.64l11.288,64.391H1711.7Z" transform="translate(-1618.251 -1284.534)"/><rect class="u" width="80.098" height="18.074" transform="translate(32.512 202.352)"/><path class="v" d="M1660.137,1513.5h61.35l1.5-8.539H1658.64Z" transform="translate(-1618.251 -1284.534)"/></g><path class="a" d="M1125.971,1573.5q-2.9-.494-5.8-.952-14.125-2.216-28.122-5.259c-18.47-4.016-37.048-7.466-55.85-9.246q-2.989-.284-5.983-.51c-8.429-.637-17.262-.844-24.978,3.186s-13.853,13.566-11.968,22.758c1.324,6.458,6.262,11.319,11.75,13.769s11.528,2.877,17.454,3.276l57.591,3.877q14.257.951,28.512,1.952c9.076.63,18.289,1.913,27.389,1.9,3.85,0,8.148-.725,11.382-3.294,4.5-3.571,7.2-11.173,7.638-17.113.226-3.085-.376-6.83-2.739-8.739a9.512,9.512,0,0,0-4.421-1.619C1140.53,1576.148,1133.27,1574.748,1125.971,1573.5Z" transform="translate(-730.191 -977.736)"/><path class="j" d="M816.525,1633.813c4.642.958,8.269,5.034,12.89,6.4a15.858,15.858,0,0,0,9.994-.734c2.913-1.093,5.875-1.677,8.866-2.635,2.331-.746,5.477-2.318,7.981-1.8,6.562,1.365,13.106,6.035,19.054,9.067,1.338.682,2.8,1.384,4.278,1.1s2.7-2.068,1.865-3.312c1.711,1.6,3.977,4.8,6.738,3.556a2.308,2.308,0,0,0,1.185-3.07,9.332,9.332,0,0,0,3.255,2.632,3.193,3.193,0,0,0,3.8-.885,3.773,3.773,0,0,0,.506-1.9,14.34,14.34,0,0,0-1.524-6.6c-4.685-10.224-15.279-17.809-24.293-23.9a19.425,19.425,0,0,0-5.06-2.732,17.739,17.739,0,0,0-5.117-.567,102.024,102.024,0,0,0-32.958,5.325c-2.292.773-4.816.115-7.1-.313a11.063,11.063,0,0,0-5.112-.148,8.814,8.814,0,0,0-4.409,3.567c-2.071,2.874-3.655,6.679-3.407,10.288.188,2.741.4,5.7,3.621,6.274,1.308.233,2.653.089,3.974.227A9.828,9.828,0,0,1,816.525,1633.813Z" transform="translate(-399.209 -1008.796)"/><path class="i" d="M125.348,1716.113H807.119c6.945,0,12.575-10.75,12.575-24.013h0c0-13.263-5.63-24.013-12.575-24.013H125.348c-6.945,0-12.575,10.75-12.575,24.013h0C112.773,1705.363,118.4,1716.113,125.348,1716.113Z" transform="translate(-48.022 -1044.939)"/><g transform="translate(453.682 193.411)"><path class="i" d="M429.741,643.532H455.21A19.745,19.745,0,0,1,474.9,663.22h0a19.7,19.7,0,0,1-8.535,16.2v13.856l-14.171-10.365h-22.45a19.745,19.745,0,0,1-19.687-19.687h0A19.745,19.745,0,0,1,429.741,643.532Z" transform="translate(-410.054 -643.532)"/><ellipse class="m" cx="2.988" cy="2.988" rx="2.988" ry="2.988" transform="translate(43.699 16.7)"/><ellipse class="m" cx="2.988" cy="2.988" rx="2.988" ry="2.988" transform="translate(29.434 16.7)"/><ellipse class="m" cx="2.988" cy="2.988" rx="2.988" ry="2.988" transform="translate(15.169 16.7)"/></g><path class="i" d="M1380.015,1071.647c3.927-6.719,13.839-10.094,23.42,1.1,9.581-11.2,19.494-7.824,23.42-1.1,9.676,16.557-23.42,36.042-23.42,36.042S1370.339,1088.2,1380.015,1071.647Z" transform="translate(-1155.629 -679.78)"/><g transform="translate(307.209 183.914)"><rect class="i" width="58.701" height="39.166" rx="3" transform="translate(0)"/><path class="w" d="M856.553,556.644l-25.7,24.92a3.946,3.946,0,0,1-5.4,0l-25.7-24.92" transform="translate(-798.8 -555.386)"/><line class="w" x1="21.088" y1="16.198" transform="translate(36.665 21.705)"/><line class="w" y1="16.198" x2="21.088" transform="translate(0.948 21.705)"/></g><g transform="translate(543.047 328.819)"><g transform="translate(0)"><rect class="i" width="67.808" height="47.098" rx="12"/></g><g transform="translate(22.015 45.945)"><path class="i" d="M588.631,1053.8l-11.889-16.035h23.778Z" transform="translate(-576.742 -1037.768)"/></g><g transform="translate(45.619 15.726)"><path class="m" d="M641.6,974.961h-2.934V966.93l.029-1.32.047-1.443q-.731.731-1.016.959l-1.595,1.282-1.415-1.766,4.471-3.56H641.6Z" transform="translate(-634.719 -961.082)"/></g><g transform="translate(15.003 15.259)"><path class="m" d="M561.141,959.9h9.623a7.461,7.461,0,0,1,7.439,7.439h0a7.444,7.444,0,0,1-3.225,6.12v5.236l-5.355-3.917h-8.483a7.461,7.461,0,0,1-7.439-7.439h0A7.461,7.461,0,0,1,561.141,959.9Z" transform="translate(-553.702 -959.897)"/></g></g></g></svg>